<svg width="1280" height="960" viewBox="0 0 1280 960" fill="none" xmlns="http://www.w3.org/2000/svg">
<rect width="1280" height="960" fill="white"/>
<path d="M771.305 492.139H900.613V435.755C900.613 428.919 902.65 422.238 906.464 416.565L925.021 388.959C930.165 381.307 924.682 371.013 915.462 371.013C910.421 371.013 722.986 371.013 714.738 371.013C703.688 371.013 694.731 379.971 694.731 391.02V424.862C732.002 438.113 751.614 458.475 771.305 492.139Z" fill="#B1DBFC"/>
<path d="M739.539 385.622C739.539 379.424 742.91 373.988 747.898 371.015C729.606 371.015 716.763 371.015 714.737 371.015C703.688 371.015 694.73 379.972 694.73 391.022V424.863C713.329 431.475 727.531 439.86 739.539 450.783V385.622Z" fill="#8BCAFF"/>
<path d="M770.617 490.984C785.464 515.905 794 545.023 794 576.14C794 647.682 760.466 705.226 697.162 728.854C700.562 735.082 707.176 742.795 714.736 742.795H880.605C891.654 742.795 900.612 733.837 900.612 722.788V490.984H770.617Z" fill="#FEE55A"/>
<path d="M739.539 726.94V704.626C727.369 714.666 713.229 722.857 697.163 728.854C700.563 735.081 707.178 742.795 714.737 742.795H750.454C744.089 740.328 739.539 734.148 739.539 726.94Z" fill="#FFD301"/>
<path d="M824.007 691.659C831.965 691.659 838.416 685.208 838.416 677.25C838.416 669.292 831.965 662.841 824.007 662.841C816.048 662.841 809.597 669.292 809.597 677.25C809.597 685.208 816.048 691.659 824.007 691.659Z" fill="#FFD301"/>
<path d="M871.006 612.654C871.006 617.437 874.884 621.315 879.667 621.315H900.612V603.991H879.667C874.884 603.992 871.006 607.87 871.006 612.654Z" fill="#FFD301"/>
<path d="M871.006 572.097C871.006 576.881 874.884 580.759 879.667 580.759H900.612V563.435H879.667C874.884 563.436 871.006 567.314 871.006 572.097Z" fill="#FFD301"/>
<path d="M871.006 653.21C871.006 657.994 874.884 661.872 879.667 661.872H900.612V644.548H879.667C874.884 644.549 871.006 648.427 871.006 653.21Z" fill="#FFD301"/>
<path d="M871.006 490.984C871.006 495.768 874.884 499.645 879.667 499.645H900.612V482.321H879.667C874.884 482.321 871.006 486.2 871.006 490.984Z" fill="#FFD301"/>
<path d="M900.613 685.107H879.668C874.885 685.107 871.007 688.984 871.007 693.768C871.007 698.552 874.885 702.43 879.668 702.43H900.613V685.107Z" fill="#FFD301"/>
<path d="M871.006 531.54C871.006 536.324 874.884 540.202 879.667 540.202H900.612V522.878H879.667C874.884 522.879 871.006 526.757 871.006 531.54Z" fill="#FFD301"/>
<path d="M871.006 450.427C871.006 455.211 874.884 459.089 879.668 459.089H900.612V441.765H879.668C874.884 441.765 871.006 445.642 871.006 450.427Z" fill="#60B8FE"/>
<path d="M643.927 556.549C718.617 602.312 782.247 573.492 804.792 560.229C798.42 492.958 752.064 437.34 689.743 417.395C677.86 413.593 669.76 402.599 669.76 390.122V259.515H608.027V390.122C608.027 402.617 599.897 413.599 587.997 417.412C565.033 424.77 544.238 436.974 526.812 452.817V503.099C526.812 513.563 529.621 523.814 534.909 532.805C563.977 527.984 601.849 530.768 643.927 556.549V556.549Z" fill="#DFEBFA"/>
<path d="M623.767 438.684C635.65 434.881 643.75 423.888 643.75 411.411V259.515H608.027V390.122C608.027 402.617 599.897 413.599 587.997 417.412C565.033 424.77 544.238 436.974 526.812 452.817V503.099C526.812 507.866 527.402 512.587 528.537 517.167C548.9 480.182 582.901 451.762 623.767 438.684V438.684Z" fill="#B1DBFC"/>
<path d="M805.55 576.14C805.55 570.325 805.252 564.578 804.67 558.916C784.314 571.414 721.192 601.581 643.926 554.239C601.278 528.108 562.942 525.598 533.724 530.69C534.526 532.19 535.384 533.663 536.318 535.096L632.522 682.69C646.884 704.725 635.527 732.83 612.759 740.668C622.027 742.176 631.527 742.91 641.194 742.779C732.177 741.548 805.55 667.412 805.55 576.14V576.14Z" fill="#FF8188"/>
<path d="M678.027 685.916C673.386 685.916 669.365 682.153 669.365 677.255C669.365 671.776 674.356 667.705 679.713 668.754C683.947 669.638 686.688 673.282 686.688 677.255C686.689 681.998 682.786 685.916 678.027 685.916Z" fill="#FF656F"/>
<path d="M648.977 635.476C661.014 635.476 670.772 625.718 670.772 613.681C670.772 601.644 661.014 591.886 648.977 591.886C636.94 591.886 627.182 601.644 627.182 613.681C627.182 625.718 636.94 635.476 648.977 635.476Z" fill="#FF656F"/>
<path d="M711.571 657.92C719.529 657.92 725.98 651.469 725.98 643.511C725.98 635.553 719.529 629.101 711.571 629.101C703.613 629.101 697.162 635.553 697.162 643.511C697.162 651.469 703.613 657.92 711.571 657.92Z" fill="#FF656F"/>
<path d="M639.24 341.611C639.24 346.394 643.118 350.272 647.902 350.272H669.76V332.948H647.902C643.118 332.948 639.24 336.827 639.24 341.611V341.611Z" fill="#B1DBFC"/>
<path d="M647.902 390.83H669.789C669.783 390.593 669.76 390.361 669.76 390.124V373.506H647.902C643.118 373.506 639.24 377.384 639.24 382.167C639.24 386.951 643.118 390.83 647.902 390.83Z" fill="#B1DBFC"/>
<path d="M639.24 301.054C639.24 305.837 643.118 309.715 647.902 309.715H669.76V292.391H647.902C643.118 292.391 639.24 296.27 639.24 301.054V301.054Z" fill="#B1DBFC"/>
<path d="M683.532 218H594.255C588.071 218 583.059 223.012 583.059 229.196V254.094C583.059 260.278 588.071 265.29 594.255 265.29H683.532C689.716 265.29 694.728 260.278 694.728 254.094V229.196C694.73 223.012 689.716 218 683.532 218V218Z" fill="#B1DBFC"/>
<path d="M497.101 606.121C535.124 629.419 570.261 617.934 586.318 610.032L537.474 535.096C531.27 525.578 527.967 514.461 527.967 503.1V380.73H465.079V503.102C465.079 514.463 461.777 525.58 455.572 535.098L415.784 596.141C433.571 590.033 465.344 586.663 497.101 606.121V606.121Z" fill="#DFEBFA"/>
<path d="M465.404 593.438L490.607 554.772C496.811 545.254 500.113 534.137 500.113 522.776V380.73H465.079V503.102C465.079 514.463 461.777 525.58 455.572 535.098L415.784 596.141C427.552 592.1 445.446 589.263 465.404 593.438V593.438Z" fill="#B1DBFC"/>
<path d="M585.454 608.704C570.859 616.489 537.321 628.454 497.103 603.812C463.761 583.383 433.857 588.113 416.684 594.762L359.372 682.69C342.516 708.55 361.073 742.795 391.941 742.795H601.109C631.977 742.795 650.533 708.55 633.677 682.69L585.454 608.704Z" fill="#23A8FE"/>
<path d="M394.405 702.366L442.63 628.38L466.829 591.255C446.14 586.568 428.432 590.213 416.684 594.762L359.372 682.689C342.516 708.55 361.073 742.795 391.941 742.795H393.188C386.436 730.901 385.812 715.549 394.405 702.366V702.366Z" fill="#0193FA"/>
<path d="M498.36 463.368C498.36 468.152 502.238 472.03 507.022 472.03H527.967V454.705H507.022C502.239 454.705 498.36 458.584 498.36 463.368Z" fill="#B1DBFC"/>
<path d="M507.023 512.587H528.751C528.238 509.464 527.968 506.292 527.968 503.1V495.263H507.023C502.239 495.263 498.361 499.141 498.361 503.925C498.361 508.708 502.239 512.587 507.023 512.587V512.587Z" fill="#B1DBFC"/>
<path d="M498.36 422.811C498.36 427.595 502.238 431.473 507.022 431.473H527.967V414.149H507.022C502.239 414.149 498.36 418.028 498.36 422.811Z" fill="#B1DBFC"/>
<path d="M541.74 336.904H451.308C445.124 336.904 440.112 341.917 440.112 348.101V372.998C440.112 379.182 445.124 384.194 451.308 384.194H541.74C547.924 384.194 552.936 379.182 552.936 372.998V348.101C552.937 341.918 547.924 336.904 541.74 336.904Z" fill="#B1DBFC"/>
<path d="M444.917 691.368C440.19 691.368 436.267 687.535 436.267 682.706C436.267 677.174 441.362 673.164 446.614 674.218C450.788 675.087 453.59 678.681 453.59 682.706C453.59 687.365 449.818 691.368 444.917 691.368Z" fill="#60B8FE"/>
<path d="M500.681 686.351C512.718 686.351 522.476 676.593 522.476 664.556C522.476 652.519 512.718 642.761 500.681 642.761C488.644 642.761 478.886 652.519 478.886 664.556C478.886 676.593 488.644 686.351 500.681 686.351Z" fill="#60B8FE"/>
<path d="M625.791 254.094V229.196C625.791 223.012 630.804 218 636.988 218H594.255C588.071 218 583.059 223.012 583.059 229.196V254.094C583.059 260.278 588.071 265.29 594.255 265.29H636.988C630.804 265.29 625.791 260.278 625.791 254.094V254.094Z" fill="#8BCAFF"/>
<path d="M482.845 372.998V348.102C482.845 341.918 487.857 336.905 494.041 336.905H451.308C445.124 336.905 440.112 341.918 440.112 348.102V372.998C440.112 379.182 445.124 384.194 451.308 384.194H494.041C487.857 384.194 482.845 379.182 482.845 372.998Z" fill="#8BCAFF"/>
</svg>
