<svg width="134" height="15" viewBox="0 0 134 15" fill="none" xmlns="http://www.w3.org/2000/svg">
<path d="M11.5 11.4V14H0.66V-9.53674e-07H11.24V2.6H3.88V5.64H10.38V8.16H3.88V11.4H11.5ZM14.078 -9.53674e-07H20.438C21.958 -9.53674e-07 23.298 0.293333 24.458 0.88C25.6313 1.45333 26.538 2.26667 27.178 3.32C27.8313 4.37333 28.158 5.6 28.158 7C28.158 8.4 27.8313 9.62667 27.178 10.68C26.538 11.7333 25.6313 12.5533 24.458 13.14C23.298 13.7133 21.958 14 20.438 14H14.078V-9.53674e-07ZM20.278 11.34C21.678 11.34 22.7913 10.9533 23.618 10.18C24.458 9.39333 24.878 8.33333 24.878 7C24.878 5.66667 24.458 4.61333 23.618 3.84C22.7913 3.05333 21.678 2.66 20.278 2.66H17.318V11.34H20.278ZM36.8214 14.24C34.8214 14.24 33.2614 13.6867 32.1414 12.58C31.0347 11.4733 30.4814 9.89333 30.4814 7.84V-9.53674e-07H33.7214V7.72C33.7214 10.2267 34.7614 11.48 36.8414 11.48C37.8547 11.48 38.6281 11.18 39.1614 10.58C39.6947 9.96667 39.9614 9.01333 39.9614 7.72V-9.53674e-07H43.1614V7.84C43.1614 9.89333 42.6014 11.4733 41.4814 12.58C40.3747 13.6867 38.8214 14.24 36.8214 14.24ZM56.6431 6.72C57.4431 6.97333 58.0698 7.4 58.5231 8C58.9765 8.58667 59.2031 9.31333 59.2031 10.18C59.2031 11.4067 58.7231 12.3533 57.7631 13.02C56.8165 13.6733 55.4298 14 53.6031 14H46.3631V-9.53674e-07H53.2031C54.9098 -9.53674e-07 56.2165 0.326666 57.1231 0.98C58.0431 1.63333 58.5031 2.52 58.5031 3.64C58.5031 4.32 58.3365 4.92667 58.0031 5.46C57.6831 5.99333 57.2298 6.41333 56.6431 6.72ZM49.5831 2.44V5.74H52.8031C53.6031 5.74 54.2098 5.6 54.6231 5.32C55.0365 5.04 55.2431 4.62667 55.2431 4.08C55.2431 3.53333 55.0365 3.12667 54.6231 2.86C54.2098 2.58 53.6031 2.44 52.8031 2.44H49.5831ZM53.3631 11.56C54.2165 11.56 54.8565 11.42 55.2831 11.14C55.7231 10.86 55.9431 10.4267 55.9431 9.84C55.9431 8.68 55.0831 8.1 53.3631 8.1H49.5831V11.56H53.3631ZM74.4961 -9.53674e-07V14H71.2561V8.26H64.8961V14H61.6561V-9.53674e-07H64.8961V5.52H71.2561V-9.53674e-07H74.4961ZM87.0284 11H80.5284L79.2884 14H75.9684L82.2084 -9.53674e-07H85.4084L91.6684 14H88.2684L87.0284 11ZM86.0084 8.54L83.7884 3.18L81.5684 8.54H86.0084ZM102.041 14L99.3409 10.1H99.1809H96.3609V14H93.1209V-9.53674e-07H99.1809C100.421 -9.53674e-07 101.494 0.206666 102.401 0.619999C103.321 1.03333 104.028 1.62 104.521 2.38C105.014 3.14 105.261 4.04 105.261 5.08C105.261 6.12 105.008 7.02 104.501 7.78C104.008 8.52667 103.301 9.1 102.381 9.5L105.521 14H102.041ZM101.981 5.08C101.981 4.29333 101.728 3.69333 101.221 3.28C100.714 2.85333 99.9743 2.64 99.0009 2.64H96.3609V7.52H99.0009C99.9743 7.52 100.714 7.30667 101.221 6.88C101.728 6.45333 101.981 5.85333 101.981 5.08ZM117.048 11H110.548L109.308 14H105.988L112.228 -9.53674e-07H115.428L121.688 14H118.288L117.048 11ZM116.028 8.54L113.808 3.18L111.588 8.54H116.028ZM125.337 2.64H120.857V-9.53674e-07H133.057V2.64H128.577V14H125.337V2.64Z" fill="#854BB3"/>
</svg>
