<svg width="1280" height="960" viewBox="0 0 1280 960" fill="none" xmlns="http://www.w3.org/2000/svg">
<rect width="1280" height="960" fill="white"/>
<path d="M584.561 629.037V665.483C584.561 679.42 577.883 692.362 566.913 699.679L540.418 717.352H739.581L713.085 699.679C702.116 692.362 695.438 679.42 695.438 665.483V629.037C658.98 629.037 621.02 629.037 584.561 629.037V629.037Z" fill="#B1DBFC"/>
<path d="M584.561 629.037V665.483C584.561 679.42 577.883 692.362 566.913 699.679L540.418 717.352H604.701L605.259 716.98C616.229 709.663 622.907 696.721 622.907 682.784V657.552C622.907 651.358 627.928 646.338 634.122 646.338H695.438V629.037H584.561Z" fill="#8BCAFF"/>
<path d="M758.123 716.075H521.878C515.3 716.075 509.967 721.408 509.967 727.985V741.323C509.967 747.901 515.3 753.233 521.878 753.233H758.123C764.7 753.233 770.033 747.901 770.033 741.323V727.985C770.033 721.408 764.7 716.075 758.123 716.075Z" fill="#DFEBFA"/>
<path d="M575.978 741.323V727.985C575.978 721.408 581.311 716.075 587.889 716.075H521.878C515.3 716.075 509.967 721.408 509.967 727.985V741.323C509.967 747.901 515.3 753.233 521.878 753.233H587.889C581.311 753.233 575.978 747.901 575.978 741.323Z" fill="#B1DBFC"/>
<path d="M901.672 207H378.328C359.399 207 344 222.399 344 241.328V596.28C344 615.209 359.399 630.608 378.328 630.608H901.672C920.601 630.608 936 615.209 936 596.28V241.328C936 222.399 920.601 207 901.672 207V207Z" fill="#695D67"/>
<path d="M383.708 596.282V241.328C383.708 222.399 399.107 207 418.036 207H378.328C359.399 207 344 222.399 344 241.328V596.28C344 615.209 359.399 630.608 378.328 630.608H418.035C399.107 630.61 383.708 615.211 383.708 596.282Z" fill="#554E56"/>
<path d="M381.158 285.953V288.335V588.51C381.158 591.239 383.369 593.45 386.098 593.45H893.902C896.63 593.45 898.842 591.239 898.842 588.51C898.842 580.508 898.842 373.167 898.842 285.953H381.158Z" fill="#DFEBFA"/>
<path d="M416.896 588.511V288.336V285.954H381.158V288.336V588.511C381.158 591.24 383.369 593.451 386.098 593.451H421.834C419.107 593.451 416.896 591.24 416.896 588.511Z" fill="#B1DBFC"/>
<path d="M893.902 244.158H433.61V288.336H898.842C898.842 267.659 898.842 253.257 898.842 249.098C898.842 246.369 896.63 244.158 893.902 244.158V244.158Z" fill="#5CB3F8"/>
<path d="M434.802 244.158H386.098C383.37 244.158 381.158 246.369 381.158 249.098V288.336H434.802V244.158Z" fill="#FF656F"/>
<path d="M421.833 244.158H386.098C383.37 244.158 381.158 246.369 381.158 249.098V288.336H416.894V249.098C416.894 246.37 419.105 244.158 421.833 244.158Z" fill="#FF4756"/>
<path d="M647.654 465.7C641.049 469.011 633.268 469.011 626.663 465.7L534.29 419.418V490.079C535.46 491.075 536.705 491.996 538.09 492.743C567.581 508.645 601.306 517.695 637.159 517.695C673.012 517.695 706.738 508.645 736.228 492.743C737.613 491.996 738.858 491.075 740.028 490.079V419.418L647.654 465.7Z" fill="#6E60B8"/>
<path d="M577.254 440.944L534.289 419.417V490.078C535.459 491.074 536.704 491.995 538.089 492.742C550.448 499.406 563.56 504.849 577.254 508.944V440.944Z" fill="#6353B2"/>
<path d="M736.227 489.169C706.736 505.071 673.012 514.121 637.158 514.121C601.304 514.121 567.579 505.071 538.089 489.169C536.704 488.422 535.459 487.502 534.289 486.505V510.705C534.289 518.496 538.445 525.783 545.303 529.482C572.646 544.225 603.915 552.617 637.158 552.617C670.401 552.617 701.67 544.226 729.013 529.482C735.87 525.784 740.027 518.496 740.027 510.705V486.505C738.857 487.502 737.612 488.422 736.227 489.169V489.169Z" fill="#9790CC"/>
<path d="M577.254 505.371C563.561 501.276 550.45 495.834 538.089 489.169C536.704 488.422 535.459 487.502 534.289 486.505V510.705C534.289 518.496 538.445 525.783 545.303 529.482C555.446 534.951 566.131 539.54 577.253 543.157V505.371H577.254Z" fill="#8479C2"/>
<path d="M780.612 385.317L647.654 318.701C641.049 315.39 633.268 315.39 626.663 318.701L493.705 385.317C486.078 389.14 486.078 400.026 493.705 403.848L626.663 470.464C633.268 473.775 641.049 473.775 647.654 470.464L780.612 403.848C788.239 400.026 788.239 389.14 780.612 385.317V385.317Z" fill="#9790CC"/>
<path d="M780.612 385.317L647.654 318.701C641.049 315.39 633.268 315.39 626.663 318.701L493.705 385.317C486.078 389.14 486.078 400.026 493.705 403.848L626.663 470.464C633.268 473.775 641.049 473.775 647.654 470.464L780.612 403.848C788.239 400.026 788.239 389.14 780.612 385.317V385.317Z" fill="#9790CC"/>
<path d="M669.871 449.706L532.136 380.696C527.423 378.334 525.544 373.373 526.453 368.91L493.704 385.318C486.077 389.141 486.077 400.027 493.704 403.849L626.661 470.465C633.267 473.776 641.048 473.776 647.653 470.465L684.575 451.967C679.617 452.759 674.469 452.011 669.871 449.706V449.706Z" fill="#8479C2"/>
<path d="M786.333 499.613C781.399 499.613 777.4 495.614 777.4 490.68V403.517H648.716C643.782 403.517 639.783 399.517 639.783 394.583C639.783 389.649 643.782 385.65 648.716 385.65H786.333C791.266 385.65 795.266 389.649 795.266 394.583V490.68C795.266 495.614 791.266 499.613 786.333 499.613Z" fill="#6353B2"/>
<path d="M810.462 551.086L799.902 508.417C796.693 512.392 791.839 514.986 786.333 514.986C780.825 514.986 775.973 512.392 772.763 508.418L762.203 551.087C760.065 559.242 766.217 567.215 774.646 567.215H798.018C806.448 567.213 812.6 559.242 810.462 551.086V551.086Z" fill="#FEC458"/>
<path d="M783.643 551.086L792.908 513.651C790.881 514.494 788.672 514.986 786.333 514.986C780.825 514.986 775.973 512.392 772.763 508.418L762.203 551.087C760.065 559.242 766.217 567.215 774.646 567.215H796.087C787.658 567.214 781.505 559.242 783.643 551.086Z" fill="#F9AB49"/>
<path d="M637.158 412.097C646.831 412.097 654.672 404.256 654.672 394.583C654.672 384.91 646.831 377.069 637.158 377.069C627.485 377.069 619.644 384.91 619.644 394.583C619.644 404.256 627.485 412.097 637.158 412.097Z" fill="#8479C2"/>
<path d="M803.845 499.855C803.845 505.484 801.189 510.493 797.063 513.697C794.098 515.998 779.077 499.855 779.077 499.855C779.077 499.855 794.098 483.712 797.063 486.014C801.191 489.217 803.845 494.225 803.845 499.855Z" fill="#FFE181"/>
<path d="M790.259 499.855C790.259 494.226 792.926 489.231 797.052 486.028C794.088 483.727 790.375 482.343 786.332 482.343C776.66 482.343 768.818 490.183 768.818 499.856C768.818 509.529 776.658 517.37 786.332 517.37C790.375 517.37 794.088 515.986 797.052 513.685C792.926 510.479 790.259 505.484 790.259 499.855V499.855Z" fill="#FEC458"/>
</svg>
