<svg width="1280" height="952" viewBox="0 0 1280 952" fill="none" xmlns="http://www.w3.org/2000/svg">
<rect width="1280" height="952" fill="white"/>
<g clip-path="url(#clip0)">
<path d="M809.19 751H469.81C467.441 751 465.521 749.08 465.521 746.711V206.289C465.521 203.92 467.441 202 469.81 202H809.189C811.558 202 813.478 203.92 813.478 206.289V746.711C813.479 749.08 811.559 751 809.19 751Z" fill="#BFEBFA"/>
<path d="M780.34 202V751H809.189C811.558 751 813.478 749.08 813.478 746.711V206.289C813.478 203.92 811.558 202 809.189 202H780.34Z" fill="#79B9EB"/>
<path d="M517.991 504.391H761.009C765.452 504.391 769.051 500.791 769.051 496.349C769.051 491.906 765.452 488.307 761.009 488.307H517.991C513.548 488.307 509.949 491.906 509.949 496.349C509.949 500.791 513.548 504.391 517.991 504.391Z" fill="#484B63"/>
<path d="M761.009 525.127H517.991C513.548 525.127 509.949 528.727 509.949 533.169C509.949 537.611 513.548 541.211 517.991 541.211H761.009C765.452 541.211 769.051 537.611 769.051 533.169C769.051 528.727 765.452 525.127 761.009 525.127Z" fill="#484B63"/>
<path d="M761.009 561.948H517.991C513.548 561.948 509.949 565.547 509.949 569.99C509.949 574.432 513.548 578.032 517.991 578.032H761.009C765.452 578.032 769.051 574.432 769.051 569.99C769.051 565.547 765.452 561.948 761.009 561.948Z" fill="#484B63"/>
<path d="M579.939 598.768H517.991C513.548 598.768 509.949 602.368 509.949 606.81C509.949 611.252 513.548 614.852 517.991 614.852H579.939C584.381 614.852 587.981 611.252 587.981 606.81C587.981 602.368 584.381 598.768 579.939 598.768Z" fill="#484B63"/>
<path d="M732.418 424.018H546.582C544.213 424.018 542.293 422.097 542.293 419.729V264.823C542.293 262.454 544.213 260.534 546.582 260.534H732.418C734.787 260.534 736.707 262.454 736.707 264.823V419.73C736.707 422.097 734.787 424.018 732.418 424.018Z" fill="#4FC6F5"/>
<path d="M542.293 389.496L600.533 338.386C602.061 337.045 604.323 336.97 605.938 338.205L718.084 424.019H546.582C544.213 424.019 542.293 422.098 542.293 419.73V389.496Z" fill="#FFBD54"/>
<path d="M684.015 325.902C695.555 325.902 704.91 316.547 704.91 305.007C704.91 293.467 695.555 284.112 684.015 284.112C672.475 284.112 663.12 293.467 663.12 305.007C663.12 316.547 672.475 325.902 684.015 325.902Z" fill="#FFD659"/>
<path d="M677.977 393.33L736.706 342.276V419.729C736.706 422.097 734.786 424.018 732.417 424.018H718.082L677.977 393.33Z" fill="#FFA954"/>
<path d="M369.853 554.531C363.382 548.06 363.382 537.569 369.853 531.099L478.424 422.526L501.857 445.959L393.285 554.531C386.815 561.001 376.324 561.001 369.853 554.531Z" fill="#484B63"/>
<path d="M516.424 698.197C523.536 642.237 550.744 638.674 550.744 638.674L582.464 670.394C582.464 670.394 578.912 697.613 522.942 704.716C519.167 705.196 515.945 701.973 516.424 698.197Z" fill="#FFD659"/>
<path d="M570.583 650.56C567.442 647.42 562.351 647.42 559.21 650.56L543.607 666.162C540.467 669.304 540.467 674.395 543.607 677.536C545.178 679.106 547.237 679.891 549.295 679.891C551.352 679.891 553.411 679.106 554.982 677.536L570.584 661.933C573.723 658.793 573.723 653.702 570.583 650.56Z" fill="#484B63"/>
<path d="M584.478 675.829L545.314 636.665C543.204 634.555 543.204 631.133 545.314 629.022L862.508 311.827C868.755 305.58 878.883 305.58 885.13 311.827L909.314 336.011C915.561 342.258 915.561 352.386 909.314 358.633L592.121 675.829C590.011 677.94 586.588 677.94 584.478 675.829Z" fill="#FF2C5C"/>
<path d="M909.314 336.011L885.911 312.607C892.158 318.854 892.158 328.983 885.911 335.23L568.718 652.426C566.607 654.536 563.185 654.536 561.075 652.426L584.478 675.829C586.588 677.939 590.011 677.939 592.121 675.829L909.314 358.633C915.562 352.386 915.562 342.258 909.314 336.011Z" fill="#E62753"/>
<path d="M584.478 675.829L545.314 636.665C543.204 634.555 543.204 631.132 545.314 629.022L564.896 609.44L611.703 656.247L592.121 675.829C590.011 677.94 586.588 677.94 584.478 675.829Z" fill="#4FC6F5"/>
<path d="M588.299 632.844L568.718 652.425C566.607 654.536 563.185 654.536 561.075 652.425L584.478 675.829C586.588 677.939 590.011 677.939 592.121 675.829L611.703 656.247L588.299 632.844Z" fill="#3BB3E3"/>
<path d="M838.092 336.239L814.689 359.642L861.495 406.449L884.899 383.045L838.092 336.239Z" fill="#4FC6F5"/>
<path d="M861.496 359.643L838.092 383.046L861.496 406.449L884.899 383.046L861.496 359.643Z" fill="#3BB3E3"/>
<path d="M882.065 711.786H750.416C742.845 711.786 736.707 705.649 736.707 698.077V648.171C736.707 640.6 742.845 634.462 750.416 634.462H882.066C889.637 634.462 895.775 640.6 895.775 648.171V698.077C895.774 705.649 889.636 711.786 882.065 711.786Z" fill="#4FC6F5"/>
<path d="M882.065 711.786H829.034V634.462H882.065C889.636 634.462 895.774 640.6 895.774 648.171V698.077C895.774 705.649 889.636 711.786 882.065 711.786Z" fill="#FF2C5C"/>
<path d="M882.065 634.462H848.926C856.498 634.462 862.635 640.6 862.635 648.171V698.077C862.635 705.649 856.498 711.786 848.926 711.786H882.065C889.636 711.786 895.774 705.649 895.774 698.077V648.171C895.774 640.6 889.636 634.462 882.065 634.462Z" fill="#E62753"/>
<path d="M829.034 634.462H795.895V711.786H829.034V634.462Z" fill="#6B73DF"/>
<path d="M475.595 438.679C441.139 404.224 441.139 348.161 475.595 313.705C510.05 279.248 566.113 279.249 600.569 313.705C635.025 348.16 635.024 404.223 600.569 438.679C566.114 473.135 510.051 473.134 475.595 438.679Z" fill="#6B73DF"/>
<path d="M600.569 313.704C596.564 309.699 592.257 306.179 587.735 303.106C611.106 337.48 607.587 384.796 577.137 415.247C546.687 445.697 499.37 449.216 464.996 425.845C468.07 430.367 471.59 434.674 475.595 438.679C510.051 473.135 566.113 473.134 600.569 438.679C635.024 404.223 635.025 348.16 600.569 313.704Z" fill="#8B93FD"/>
<path d="M606.255 308.017C568.665 270.427 507.5 270.427 469.908 308.017C451.726 326.201 441.711 350.412 441.711 376.192C441.711 401.971 451.726 426.182 469.908 444.365C488.092 462.548 512.302 472.563 538.082 472.563C563.861 472.563 588.073 462.548 606.257 444.365C643.847 406.775 643.847 345.61 606.255 308.017ZM594.883 432.992C579.738 448.137 559.565 456.479 538.082 456.479C516.599 456.479 496.427 448.137 481.282 432.992C466.136 417.847 457.795 397.675 457.795 376.192C457.795 354.709 466.136 334.535 481.282 319.391C496.942 303.729 517.508 295.9 538.082 295.9C558.65 295.9 579.225 303.733 594.883 319.389C626.203 350.71 626.203 401.673 594.883 432.992Z" fill="#484B63"/>
</g>
<defs>
<clipPath id="clip0">
<rect width="549" height="549" fill="white" transform="translate(365 202)"/>
</clipPath>
</defs>
</svg>
