<svg width="1280" height="960" viewBox="0 0 1280 960" fill="none" xmlns="http://www.w3.org/2000/svg">
<rect width="1280" height="960" fill="white"/>
<path d="M363.889 266.889H916.111V655.829H363.889V266.889Z" fill="#BEEBFA"/>
<path d="M640 266.889H916.111V655.829H640V266.889Z" fill="#78B9EB"/>
<path d="M935.74 655.829H896.482V286.518H383.518V655.829H344.26V247.26H935.74V655.829Z" fill="#07485E"/>
<path d="M640 247.26V286.518H896.482V655.829H935.74V247.26H640Z" fill="#03232E"/>
<path d="M522.864 513.842H500.665C453.51 513.842 415.147 552.205 415.147 599.36V655.829H608.383V599.36C608.382 552.205 570.019 513.842 522.864 513.842Z" fill="#E63950"/>
<path d="M305 636.2H975V751.747H305V636.2Z" fill="#E1EBF0"/>
<path d="M640 636.2H975V751.747H640V636.2Z" fill="#B4D2D7"/>
<path d="M620.385 636.2H659.643V680.795H620.385V636.2Z" fill="#FFF5F5"/>
<path d="M525.296 551.376C556.875 543.911 576.424 512.259 568.959 480.678C561.494 449.098 529.842 429.549 498.263 437.014C466.683 444.479 447.135 476.131 454.6 507.711C462.065 539.291 493.717 558.84 525.296 551.376Z" fill="#FFCEBF"/>
<path d="M676.554 208V449.443L766.292 407.279H975V208H676.554Z" fill="#78B9EB"/>
<path d="M676.554 208V449.443L766.292 407.279H975V208H676.554Z" fill="#6E76E5"/>
<path d="M434.776 339.72H588.754V378.978H434.776V339.72Z" fill="#09607D"/>
<path d="M709.786 544.594H863.764V583.852H709.786V544.594Z" fill="#09607D"/>
<path d="M709.786 466.073H863.764V505.331H709.786V466.073Z" fill="#09607D"/>
<path d="M709.786 544.594H863.764V583.852H709.786V544.594Z" fill="#07485E"/>
<path d="M709.786 466.073H863.764V505.331H709.786V466.073Z" fill="#07485E"/>
<path d="M640 636.2H659.643V680.795H640V636.2Z" fill="#E1EBF0"/>
</svg>
