<svg width="1280" height="960" viewBox="0 0 1280 960" fill="none" xmlns="http://www.w3.org/2000/svg">
<rect width="1280" height="960" fill="white"/>
<g clip-path="url(#clip0)">
<path d="M601.112 625.086H646.087V695.048H601.112V625.086Z" fill="#C9D2E3"/>
<path d="M634.22 625.086H646.087V695.048H634.22V625.086Z" fill="#ADBBD5"/>
<path d="M786.012 384.967C786.012 474.662 713.295 547.379 623.599 547.379C533.904 547.379 461.187 474.662 461.187 384.967C461.187 295.271 533.904 222.554 623.599 222.554C713.295 222.554 786.012 295.271 786.012 384.967Z" fill="#8DB0FF"/>
<path d="M713.062 249.407C730.026 275.064 739.911 305.808 739.911 338.87C739.911 428.565 667.198 501.278 577.503 501.278C544.441 501.278 513.697 491.393 488.04 474.429C517.104 518.381 566.961 547.38 623.6 547.38C713.295 547.38 786.013 474.662 786.013 384.967C786.013 328.329 757.014 278.471 713.062 249.407Z" fill="#669AF7"/>
<path d="M751.89 395.34C751.448 400.939 745.812 404.583 740.534 402.68L728.648 398.403C731.375 391.501 733.637 384.366 735.401 377.041C736.797 379.601 738.845 381.816 741.404 383.426L747.925 387.489C750.605 389.169 752.127 392.194 751.89 395.34V395.34Z" fill="#669AF7"/>
<path d="M623.6 222.554C582.664 222.554 545.269 237.707 516.704 262.699L530.921 284.246C533.467 288.1 537.446 290.78 541.974 291.683L574.142 298.12C577.079 298.706 579.816 300.042 582.077 302.001L634.276 347.177C639.851 351.998 647.87 352.766 654.255 349.08L667.547 341.41C672.834 338.362 679.331 338.32 684.659 341.303L701.218 350.579C705.123 352.761 708.031 356.377 709.325 360.659L717.279 386.889C718.866 392.129 722.831 396.304 727.978 398.156L740.544 402.679C745.821 404.578 751.457 400.934 751.885 395.34C752.132 392.189 750.601 389.164 747.92 387.489L741.414 383.421C735.829 379.931 732.706 373.574 733.363 367.021L734.768 352.985C735.522 345.413 741.135 339.223 748.595 337.729C752.588 336.933 756.176 334.751 758.717 331.572L770.859 316.396C745.002 260.972 688.792 222.554 623.6 222.554V222.554Z" fill="#7AE57D"/>
<path d="M751.89 395.34C751.448 400.939 745.812 404.583 740.534 402.68L728.648 398.403C731.375 391.501 733.637 384.366 735.401 377.041C736.797 379.601 738.845 381.816 741.404 383.426L747.925 387.489C750.605 389.169 752.127 392.194 751.89 395.34V395.34Z" fill="#66D166"/>
<path d="M713.076 249.43C730.03 275.083 739.911 305.817 739.911 338.869C739.911 340.038 739.892 341.201 739.869 342.36C742.21 340.061 745.207 338.409 748.595 337.729C752.588 336.933 756.171 334.751 758.717 331.572L770.855 316.396C758.117 289.086 737.998 265.919 713.076 249.43V249.43Z" fill="#66D166"/>
<path d="M730.114 181.72L723.143 195.021C720.066 200.89 722.133 208.113 727.806 211.538C786.953 247.206 826.474 312.259 825.985 386.331C825.255 496.619 735.252 586.622 624.963 587.352C550.891 587.841 485.843 548.32 450.171 489.173C446.746 483.495 439.527 481.434 433.654 484.51L420.353 491.481C414.038 494.79 411.716 502.735 415.369 508.855C457.971 580.185 536.152 627.916 625.233 627.33C757.307 626.455 865.088 518.674 865.963 386.6C866.554 297.52 818.818 219.338 747.487 176.736C741.367 173.083 733.423 175.405 730.114 181.72V181.72Z" fill="#C9D2E3"/>
<path d="M787.567 206.666C827.302 249.845 851.6 307.432 851.6 370.6C851.6 504.243 742.875 612.968 609.233 612.968C546.065 612.968 488.478 588.67 445.298 548.934C489.618 597.102 553.139 627.334 623.6 627.334C757.242 627.334 865.967 518.609 865.967 384.967C865.967 314.506 835.735 250.985 787.567 206.666V206.666Z" fill="#ADBBD5"/>
<path d="M525.765 514.607L497.357 543.019C485.611 533.637 474.944 522.965 465.534 511.223L493.96 482.802C503.03 494.818 513.748 505.536 525.765 514.607V514.607Z" fill="#F9C646"/>
<path d="M781.652 258.724L753.244 287.132C744.174 275.11 733.451 264.392 721.435 255.322L749.856 226.9C761.598 236.311 772.269 246.977 781.652 258.724V258.724Z" fill="#F9C646"/>
<path d="M723.548 740.024H523.652V720.036C523.652 706.237 534.84 695.049 548.639 695.049H698.561C712.359 695.049 723.543 706.237 723.543 720.036V740.024H723.548Z" fill="#FFD664"/>
<path d="M698.56 695.049H677.32C691.123 695.049 702.307 706.237 702.307 720.036V740.024H723.547V720.036C723.547 706.237 712.359 695.049 698.56 695.049Z" fill="#F9C646"/>
<path d="M736.038 785H511.161C504.263 785 498.669 779.405 498.669 772.508V765.011C498.669 751.212 509.853 740.024 523.652 740.024H723.543C737.346 740.024 748.53 751.212 748.53 765.011V772.508C748.53 779.405 742.94 785 736.038 785Z" fill="#636363"/>
<path d="M723.547 740.024H698.56C712.359 740.024 723.547 751.212 723.547 765.011C723.547 767.771 721.309 770.009 718.549 770.009H498.669V772.504C498.669 779.405 504.263 785 511.161 785H736.038C742.94 785 748.53 779.405 748.53 772.504V765.011C748.53 751.212 737.346 740.024 723.547 740.024Z" fill="#494949"/>
<path d="M493.713 379.368L495.733 337.906C495.989 332.666 499.763 328.259 504.906 327.202L533.941 321.222C536.953 320.603 540.085 321.213 542.64 322.916L572.397 342.756C576.79 345.683 578.628 351.226 576.851 356.196L575.669 359.51C574.389 363.089 574.961 367.068 577.2 370.144C580.797 375.091 587.638 376.357 592.772 373.025L600.79 367.812C605.347 364.848 611.355 365.481 615.194 369.32L617.075 371.2C621.901 376.027 621.491 383.962 616.195 388.266L606.64 396.029C606.282 396.318 605.947 396.625 605.626 396.955L572.932 430.738C570.242 433.517 569.13 437.463 569.968 441.238L578.158 478.087C578.466 479.46 578.517 480.88 578.307 482.271L575.813 499.128C574.705 506.593 566.835 510.986 559.901 508.017L559.585 507.882C557.341 506.918 555.461 505.271 554.219 503.172L537.516 474.983C536.613 473.461 535.37 472.168 533.886 471.204L517.28 460.407C513.543 457.978 511.547 453.608 512.156 449.191L515.228 426.908C515.8 422.766 514.078 418.643 510.737 416.134L500.21 408.236C497.631 406.305 495.984 403.382 495.663 400.181L493.75 381.071C493.699 380.504 493.685 379.936 493.713 379.368V379.368Z" fill="#7AE57D"/>
<path d="M554.223 503.172C555.466 505.27 557.346 506.918 559.585 507.881L559.901 508.016C566.151 510.692 573.146 507.379 575.278 501.236C567.334 501.128 559.529 500.458 551.896 499.253L554.223 503.172Z" fill="#66D166"/>
</g>
<defs>
<clipPath id="clip0">
<rect width="610" height="610" fill="white" transform="translate(335 175)"/>
</clipPath>
</defs>
</svg>
