<svg width="1148" height="840" viewBox="0 0 1148 840" fill="none" xmlns="http://www.w3.org/2000/svg">
<path fill-rule="evenodd" clip-rule="evenodd" d="M83.4802 605.501C108.777 507.697 364.75 563.414 532.564 533.178C700.377 502.942 898.914 362.125 1030.31 431.104C1161.7 500.083 1021.9 666.826 720.537 704.454C419.172 742.082 58.1834 703.305 83.4802 605.501Z" fill="#F2F2F2"/>
<g opacity="0.5">
<path fill-rule="evenodd" clip-rule="evenodd" d="M300.908 183.672C299.335 185.243 299.946 190.824 299.913 192.89C299.862 196.106 300.062 199.292 300.331 202.496C300.511 204.642 301.527 225.114 304.352 223.542C305.945 222.656 304.947 216.734 304.944 214.86C304.937 210.696 304.764 206.542 304.487 202.387C304.229 198.529 304.066 194.716 304.215 190.851C304.251 189.908 305.134 179.439 300.908 183.672Z" fill="#89C5CC"/>
<path fill-rule="evenodd" clip-rule="evenodd" d="M369.409 181.149C355.896 181.256 342.388 181.923 328.881 182.331C322.381 182.528 315.886 182.778 309.394 183.138C307.181 183.261 302.436 182.552 300.593 183.731C296.501 186.348 303.1 186.96 304.859 186.896C331.59 185.927 358.329 184.65 385.082 184.59C398.206 184.561 411.323 184.934 424.448 184.851C429.465 184.819 435.02 182.657 436.287 188.497C437.717 195.086 436.074 202.423 435.627 209.045C435.329 213.465 435.435 217.794 435.634 222.211C435.762 225.04 435.429 228.228 435.93 231.005C436.411 233.679 438.333 235.282 440.095 232.287C441.148 230.497 440.624 226.078 440.694 224.005C440.788 221.213 440.7 218.421 440.7 215.628C440.699 208.811 441.661 202.022 441.534 195.206C441.452 190.811 441.219 182.844 435.676 181.788C429.572 180.625 422.069 181.794 415.822 181.723C400.344 181.546 384.892 181.028 369.409 181.149Z" fill="#89C5CC"/>
<path fill-rule="evenodd" clip-rule="evenodd" d="M332.174 223.786C327.078 223.786 321.982 223.817 316.887 223.901C312.517 223.973 305.647 223.063 301.579 224.626C298.795 225.696 298.056 228.805 301.579 229.633C305.423 230.536 311.215 229.059 315.236 228.989C335.4 228.633 355.758 228.169 375.894 229.444C394.762 230.638 413.993 231.797 432.888 230.536C434.478 230.43 442.586 230.107 438.886 227.068C436.728 225.294 427.979 226.46 425.174 226.376C415.28 226.077 405.376 226.011 395.485 225.636C385.722 225.265 376.004 224.168 366.238 223.896C354.893 223.58 343.523 223.786 332.174 223.786Z" fill="#89C5CC"/>
<path fill-rule="evenodd" clip-rule="evenodd" d="M327.075 194.804C335.017 195.151 342.875 206.669 334.839 212.235C327.3 217.459 313.172 211.734 317.364 201.606C316.761 203.07 318.126 200.015 318.143 199.995C318.94 199.056 320.371 198.016 321.354 197.276C322.478 196.428 323.649 195.496 325.005 195.071C325.895 194.792 325.755 195.841 327.075 194.804ZM323.207 190.65C319.49 192.101 317.794 193.738 315.239 196.701C313.472 198.751 311.218 199.83 311.238 202.6C311.243 203.213 312.03 203.887 312.167 204.478C312.355 205.294 312.137 206.34 312.286 207.207C313.824 216.157 324.501 219.174 332.317 217.484C339.125 216.012 344.217 209.477 342.64 202.37C341.052 195.216 330.444 187.819 323.207 190.65Z" fill="#89C5CC"/>
<path fill-rule="evenodd" clip-rule="evenodd" d="M319.896 203.143C319.896 206.362 324.982 206.362 324.982 203.143C324.982 199.96 319.896 199.823 319.896 203.143Z" fill="#89C5CC"/>
<path fill-rule="evenodd" clip-rule="evenodd" d="M326.258 202.491C326.258 205.049 330.299 205.049 330.299 202.491C330.299 199.962 326.258 199.854 326.258 202.491Z" fill="#89C5CC"/>
<path fill-rule="evenodd" clip-rule="evenodd" d="M327.51 207.767C326.216 208.264 324.574 207.233 323.512 207.912C321.631 209.117 323.517 210.206 324.525 210.69C329.065 212.869 329.873 206.861 327.51 207.767Z" fill="#89C5CC"/>
<path fill-rule="evenodd" clip-rule="evenodd" d="M396.85 200.632C396.714 200.689 396.233 200.893 396.85 200.632V200.632ZM377.077 197.742C373.679 198.509 370.81 201.683 367.118 201.258C364.289 200.933 362.373 198.202 359.58 197.806C356.007 197.298 346.282 205.449 351.395 206.847C354.378 207.663 356.033 202.212 358.668 201.922C360.753 201.693 363.588 204.25 365.748 204.614C369.778 205.293 372.546 203.073 376.083 201.641C379.928 200.086 382.115 201.487 385.458 203.216C388.097 204.58 390.583 205.469 393.602 204.906C396.436 204.378 399.996 201.463 402.849 201.762C405.643 202.055 407.637 204.971 410.511 205.242C411.696 205.353 413.46 205.757 413.261 203.929C413.101 202.465 411.468 202.713 410.446 202.181C407.818 200.812 405.36 198.388 402.189 198.595C399.803 198.751 397.631 200.427 395.433 201.229C388.233 203.855 384.185 196.148 377.077 197.742Z" fill="#89C5CC"/>
<path fill-rule="evenodd" clip-rule="evenodd" d="M383.092 244.111C369.204 244.239 355.268 244.445 341.419 245.558C338.135 245.822 304.608 248.988 304.672 249.216C304.789 249.637 309.101 250.282 309.075 250.381C308.784 249.661 308.12 249.362 307.082 249.487C338.879 249.487 370.576 246.64 402.415 247.152C410.416 247.28 418.446 247.227 426.44 247.479C428.436 247.542 433.381 248.972 434.949 248.071C439.062 245.706 431.589 245.433 430.352 245.334C414.683 244.08 398.805 243.954 383.092 244.111Z" fill="#69A1AC"/>
<path fill-rule="evenodd" clip-rule="evenodd" d="M300.556 250.859C298.479 252.941 300.391 260.43 300.473 263.245C300.591 267.314 300.494 271.412 300.851 275.471C301.259 280.107 301.891 285.047 303.107 289.545C303.777 292.023 306.129 295.961 307.061 291.459C307.726 288.242 306.716 283.976 306.364 280.7C305.894 276.317 305.78 271.992 305.763 267.587C305.747 263.75 305.673 259.896 305.358 256.071C305.195 254.085 304.196 247.238 300.556 250.859Z" fill="#69A1AC"/>
<path fill-rule="evenodd" clip-rule="evenodd" d="M352.794 288.998C342.938 289.167 333.061 289.4 323.222 290.015C319.189 290.268 315.159 290.644 311.141 291.07C310.322 291.157 301.247 291.525 305.302 294.875C307.132 296.387 314.661 294.296 317.147 294.078C321.33 293.712 325.511 293.473 329.705 293.296C339.424 292.883 349.172 292.519 358.9 292.688C376.667 292.996 394.319 293.134 412.09 292.737C414.615 292.681 434.396 293.21 435.068 290.583C435.609 288.466 428.535 289.437 427.245 289.475C422.514 289.617 417.782 289.584 413.048 289.56C392.997 289.457 372.83 288.659 352.794 288.998Z" fill="#69A1AC"/>
<path fill-rule="evenodd" clip-rule="evenodd" d="M431.719 247.347C432.032 256.122 433.526 264.887 434.004 273.689C434.222 277.712 434.479 281.732 434.676 285.757C434.74 287.056 434.217 290.184 435.752 290.931C437.858 291.955 438.142 289.891 438.536 288.495C439.675 284.462 438.904 279.224 438.801 275.081C438.701 271.07 438.694 267.051 438.398 263.047C438.095 258.957 437.272 254.943 436.889 250.867C436.728 249.143 437.293 246.274 435.463 245.204C433.881 244.279 431.65 245.445 431.719 247.347Z" fill="#69A1AC"/>
<path fill-rule="evenodd" clip-rule="evenodd" d="M334.845 261.944C334.882 261.973 334.919 262.002 334.956 262.031C334.919 262.002 334.882 261.973 334.845 261.944ZM326.469 259.344C329.592 260.236 332.157 259.904 335.141 262.177C337.614 264.063 340.151 266.821 340.971 269.869C342.866 276.911 336.441 280.771 330.418 280.847C324.248 280.924 315.115 279.493 315.431 271.585C315.674 265.509 320.11 259.58 326.469 259.344ZM326.689 255.364C318.59 255.767 312.057 264.863 312.127 272.518C312.212 281.797 322.725 284.188 330.194 284.252C338.623 284.324 347.028 278.504 344.77 269.025C342.96 261.431 334.477 254.96 326.689 255.364Z" fill="#69A1AC"/>
<path fill-rule="evenodd" clip-rule="evenodd" d="M318.542 267.822C318.542 270.41 322.63 270.41 322.63 267.822C322.63 265.265 318.542 265.155 318.542 267.822Z" fill="#69A1AC"/>
<path fill-rule="evenodd" clip-rule="evenodd" d="M327.117 266.687C327.117 269.295 331.237 269.295 331.237 266.687C331.237 264.109 327.117 263.998 327.117 266.687Z" fill="#69A1AC"/>
<path fill-rule="evenodd" clip-rule="evenodd" d="M322.39 272.589C319.729 275.245 329.076 279.902 331.281 276.207C333.091 273.171 329.149 274.178 327.752 274.014C326.233 273.835 323.629 271.352 322.39 272.589Z" fill="#69A1AC"/>
<path fill-rule="evenodd" clip-rule="evenodd" d="M397.124 266.74C396.868 266.848 396.868 266.848 397.124 266.74V266.74ZM362.022 262.416C359.328 262.921 350.486 265.904 350.367 269.1C350.148 274.91 358.808 268.959 360.688 268.195C365.796 266.119 368.48 270.354 373.612 270.577C378.068 270.771 382.166 266.957 386.364 267.408C390.763 267.881 392.878 272.56 397.956 270.076C400.643 268.762 400.575 266.735 397.559 266.544C395.737 266.429 394.484 267.182 392.584 266.398C389.612 265.172 388.415 263.176 384.859 263.493C382.175 263.733 379.75 265.245 377.13 265.831C371.132 267.171 367.805 261.332 362.022 262.416Z" fill="#69A1AC"/>
<path fill-rule="evenodd" clip-rule="evenodd" d="M417.818 269.263C417.632 269.341 417.632 269.341 417.818 269.263V269.263ZM418.497 266.844C418.527 266.857 418.73 267.139 418.497 266.844V266.844ZM415.409 264.997C415.293 265.087 415.293 265.087 415.409 264.997V264.997ZM415.476 264.974C416.075 265.333 420.89 268.625 417.393 269.401C415.617 269.794 414.148 266.222 415.476 264.974ZM413.882 261.327C406.169 264.844 414.469 277.429 420.522 272.316C423.069 270.164 423.404 265.815 420.926 263.573C419.442 262.23 415.897 260.406 413.882 261.327Z" fill="#69A1AC"/>
<path fill-rule="evenodd" clip-rule="evenodd" d="M341.477 310.921C331.852 310.924 322.143 310.722 312.531 311.292C310.914 311.388 304.752 311.08 303.918 312.771C302.394 315.864 308.734 314.329 309.655 314.236C328.793 312.32 348.784 313.423 367.985 313.969C383.689 314.415 399.308 314.692 414.993 315.502C419.116 315.714 423.235 315.949 427.355 316.198C428.698 316.279 432.077 317.169 432.361 315.024C432.622 313.039 428.407 313.488 427.354 313.432C418.979 312.991 410.61 312.529 402.237 312.058C382.085 310.922 361.661 310.917 341.477 310.921Z" fill="#89C5CC"/>
<path fill-rule="evenodd" clip-rule="evenodd" d="M303.609 314.36C301.812 316.147 302.654 322.971 302.604 325.227C302.516 329.171 302.33 333.113 302.247 337.057C302.16 341.178 302.28 345.319 302.524 349.435C302.626 351.163 304.045 359.515 306.278 354.736C307.276 352.6 306.254 346.651 306.269 344.23C306.297 339.826 306.534 335.44 306.753 331.041C306.941 327.26 306.948 323.475 307.114 319.693C307.166 318.488 307.309 310.65 303.609 314.36Z" fill="#89C5CC"/>
<path fill-rule="evenodd" clip-rule="evenodd" d="M433.98 349.595C424.613 350.555 415.096 350.102 405.694 350.811C397.591 351.422 389.495 351.672 381.371 351.844C362.975 352.232 344.547 352.611 326.204 354.144C322.024 354.493 317.848 354.864 313.657 355.051C311.561 355.145 302.764 354.191 302.109 356.4C300.993 360.164 310.4 358.674 312.429 358.616C316.891 358.487 321.332 358.164 325.781 357.825C344.485 356.4 363.259 355.974 382.003 355.382C392.196 355.06 402.319 354.314 412.49 353.636C417.56 353.298 422.643 353.287 427.712 352.959C429.039 352.873 433.734 353.042 434.688 351.975C435.343 351.242 435.509 349.453 433.98 349.595Z" fill="#89C5CC"/>
<path fill-rule="evenodd" clip-rule="evenodd" d="M430.805 315C431.126 323.983 431.634 332.958 431.937 341.94C432.028 344.641 431.212 349.482 432.716 351.865C435.135 355.695 437.023 351.641 437.465 349.254C438.863 341.721 437.361 333.4 436.97 325.82C436.821 322.929 437.719 316.493 436.322 313.905C434.991 311.44 430.685 311.688 430.805 315Z" fill="#89C5CC"/>
<path fill-rule="evenodd" clip-rule="evenodd" d="M415.079 327.794C418.668 328.766 419.192 336.567 415.143 337.145C409.116 338.004 411.752 329.402 415.079 327.794ZM414.074 324.691C412.979 324.657 410.453 324.355 409.778 325.246C409.214 325.992 409.784 327.565 409.718 328.275C409.481 330.813 407.417 332.279 408.34 335.276C408.966 337.31 410.643 339.221 412.687 339.927C423.472 343.655 423.341 322.816 414.074 324.691Z" fill="#89C5CC"/>
<path fill-rule="evenodd" clip-rule="evenodd" d="M316.702 326.091C316.675 326.125 316.648 326.159 316.621 326.194C316.648 326.159 316.675 326.125 316.702 326.091ZM325.173 321.584C325.13 321.223 325.088 320.862 325.046 320.501C330.894 323.261 335.547 328.396 333.605 335.288C332.123 340.546 326.771 342.411 321.784 341.113C316.263 339.675 313.625 335.125 315.114 329.538C315.801 326.96 317.909 323.496 320.635 322.667C321.904 322.281 324.71 323.265 325.173 321.584ZM321.753 319.401C320.274 319.501 318.834 320.117 317.627 320.96C318.757 320.004 320.263 319.435 321.753 319.401ZM321.795 316.005C318.142 316.117 315.747 318.329 313.58 320.985C312.9 321.819 310.6 324.03 310.885 325.154C311.11 326.042 311.699 327.341 312.94 326.35C306.442 339.3 323.228 350.346 333.475 341.34C343.038 332.936 333.55 315.611 321.795 316.005Z" fill="#89C5CC"/>
<path fill-rule="evenodd" clip-rule="evenodd" d="M318.476 328.035C318.476 329.759 321.153 329.759 321.153 328.035C321.153 326.31 318.476 326.31 318.476 328.035Z" fill="#89C5CC"/>
<path fill-rule="evenodd" clip-rule="evenodd" d="M323.044 328.329C323.044 330.082 325.764 330.082 325.764 328.329C325.764 326.576 323.044 326.576 323.044 328.329Z" fill="#89C5CC"/>
<path fill-rule="evenodd" clip-rule="evenodd" d="M325.117 334.484C323.845 334.587 319.186 334.155 318.369 335.269C317.002 337.132 319.183 337.197 320.254 337.398C321.219 337.579 325.413 337.477 326.004 336.62C326.526 335.863 326.404 334.374 325.117 334.484Z" fill="#89C5CC"/>
<path fill-rule="evenodd" clip-rule="evenodd" d="M381.241 329.653C381.022 329.744 381.022 329.744 381.241 329.653V329.653ZM363.64 328.366C360.772 328.577 358.344 330.226 355.602 330.884C352.676 331.587 351.409 330.295 348.748 329.449C345.98 328.569 344.011 328.917 341.786 330.807C340.526 331.878 337.76 334.344 338.548 336.247C340.352 340.602 344.436 333.516 346.357 333.186C349.353 332.672 352.019 335.292 355.475 334.543C358.606 333.864 361.384 331.714 364.654 331.691C367.389 331.671 369.966 333.168 372.666 333.53C376.788 334.083 379.494 332.619 383.304 331.533C386.608 330.591 388.924 331.833 392.032 332.878C393.452 333.355 398.191 335.091 397.319 331.944C397.072 331.054 390.827 329.464 389.859 329.159C386.445 328.08 384.283 328.5 381.03 329.74C378.318 330.775 376.036 331.279 373.128 330.71C369.924 330.082 367.01 328.11 363.64 328.366Z" fill="#89C5CC"/>
</g>
<g opacity="0.5">
<path fill-rule="evenodd" clip-rule="evenodd" d="M495.575 184.012C496.038 174.055 496.674 164.113 497.009 154.15C497.176 149.214 497.306 144.276 497.432 139.339C497.459 138.239 497.488 137.14 497.513 136.041C497.594 132.306 497.151 132 500.91 131.668C517.679 130.188 534.515 129.698 551.304 128.358C571.553 126.743 591.907 125.628 612.213 125.128C621.236 124.906 630.298 124.445 639.323 124.725C641.322 124.787 645.247 124.267 646.035 125.821C646.375 126.493 645.661 128.804 645.571 129.578C645.288 131.999 645.024 134.428 644.861 136.861C643.901 151.208 644.473 165.917 647.251 180.047C640.734 176.372 632.5 173.211 624.904 173.838C617.16 174.478 611.367 178.952 605.168 183.07C601.662 185.4 600.481 186.012 596.983 183.756C593.968 181.811 591.116 179.588 588.272 177.405C583.883 174.037 579.741 170.386 575.485 166.855C567.66 160.363 556.878 151.122 546.07 153.843C538.348 155.787 531.218 160.031 524.516 164.184C514.558 170.355 505.545 177.912 495.575 184.012ZM629.779 120.304C591.306 120.304 553.121 124.033 514.756 126.051C510.749 126.261 506.756 126.572 502.764 126.957C500.103 127.214 493.596 126.135 491.852 128.409C490.688 129.926 491.688 130.153 491.852 131.595C492.058 133.411 491.936 135.563 491.883 137.486C491.755 142.118 491.62 146.75 491.515 151.383C491.118 168.893 490.869 186.4 491.578 203.905C491.733 207.723 493.124 213.009 492.363 216.719C491.812 219.405 489.97 221.039 494.218 221.535C498.398 222.024 503.509 220.781 507.693 220.383C511.901 219.983 516.108 219.548 520.321 219.201C538.638 217.692 557.133 217.92 575.499 217.418C594.029 216.912 612.567 216.88 631.104 216.869C638.86 216.865 647.723 217.301 655.291 215.167C657.953 214.415 658.384 214.045 657.727 211.404C657.603 210.902 656.799 210.717 656.563 209.811C656.242 208.578 656.407 207.079 656.332 205.796C656.087 201.604 656.001 197.404 655.804 193.21C655.474 186.201 654.266 179.399 653.372 172.461C652.341 164.449 652.394 156.313 652.373 148.248C652.361 143.775 652.476 139.316 652.835 134.855C653.066 131.994 654.475 127.722 653.76 125.054C653.404 123.725 652.822 122.672 651.439 122.1C650.563 121.737 649.826 122.021 648.96 121.929C647.933 121.82 647.292 121.676 646.062 121.398C640.789 120.203 635.151 120.304 629.779 120.304Z" fill="#69A1AC"/>
<path fill-rule="evenodd" clip-rule="evenodd" d="M608.487 139.352C608.484 142.141 608.049 146.255 609.335 148.881C610.965 152.211 613.005 151.17 613.545 148.041C613.855 146.247 613.847 140.941 613.271 139.352C612.456 137.104 608.487 135.573 608.487 139.352Z" fill="#89C5CC"/>
<path fill-rule="evenodd" clip-rule="evenodd" d="M613.166 140.429C610.548 140.521 602.924 139.893 601.153 141.998C598.115 145.608 603.404 146.247 605.675 146.045C608.303 145.811 616.423 146.382 618.183 144.275C621.127 140.749 615.224 140.354 613.166 140.429Z" fill="#89C5CC"/>
<path fill-rule="evenodd" clip-rule="evenodd" d="M511.583 233.579C523.091 235.578 519.511 253.125 508.621 249.06C504.827 247.644 499.237 243.552 501.334 238.731C502.9 235.129 508.006 233.236 511.583 233.579ZM506.818 228.124C499.334 229.384 494.217 237.483 496.783 244.548C499.259 251.363 508.648 256.354 515.573 253.905C522.183 251.566 525.481 242.771 523.253 236.337C520.924 229.615 513.338 227.026 506.818 228.124Z" fill="#89C5CC"/>
<path fill-rule="evenodd" clip-rule="evenodd" d="M576.816 235.632C573.951 235.869 571.475 237.875 568.592 238.231C565.896 238.563 563.662 237.64 561.138 236.903C558.087 236.012 555.289 235.62 552.171 236.412C549.789 237.017 547.439 238.638 544.964 238.834C540.094 239.218 534.434 233.662 530.632 239.946C528.809 242.959 531.456 244.9 534.182 243.495C537.024 242.03 535.629 241.506 539.155 242.371C542.096 243.092 544.474 243.484 547.42 242.473C550.089 241.558 552.432 239.882 555.333 239.694C558.174 239.51 560.645 240.804 563.36 241.362C566.699 242.048 569.653 241.529 572.817 240.482C575.826 239.487 577.027 238.942 580.064 239.83C581.986 240.393 586.187 242.18 588.058 240.74C591.294 238.251 586.962 237.887 585.256 237.533C582.509 236.964 579.667 235.398 576.816 235.632Z" fill="#89C5CC"/>
<path fill-rule="evenodd" clip-rule="evenodd" d="M642.384 233.959C642.407 233.977 642.43 233.995 642.452 234.012C642.43 233.995 642.406 233.977 642.384 233.959ZM639.571 233.371C643.754 233.64 648.277 241.26 642.735 241.53C638.834 241.721 634.469 235.049 639.571 233.371ZM638.984 227.136C625.758 230.829 631.804 249.477 644.562 247.323C650.357 246.344 652.321 239.631 650.405 234.661C649.582 232.526 647.978 230.727 646.061 229.498C644.647 228.592 640.601 226.686 638.984 227.136Z" fill="#89C5CC"/>
<path fill-rule="evenodd" clip-rule="evenodd" d="M577.276 266.065C588.915 265.666 600.555 265.266 612.206 265.158C618.52 265.1 624.8 265.21 631.105 265.572C633.902 265.732 636.696 265.887 639.495 266.005C639.977 266.026 640.644 265.993 641.38 265.957C643.112 265.872 645.227 265.768 646.222 266.294C651.788 269.238 640.448 269.561 639.07 269.538C635.983 269.486 632.899 269.333 629.815 269.181C627.12 269.048 624.425 268.915 621.727 268.848C604.42 268.423 587.008 269.201 569.671 269.975C565.697 270.152 561.727 270.33 557.763 270.492C553.554 270.665 549.347 270.777 545.14 270.888C539.125 271.048 533.111 271.208 527.097 271.546C524.801 271.675 522.505 271.811 520.208 271.948C516.919 272.144 513.63 272.34 510.339 272.513C507.763 272.649 505.186 272.781 502.607 272.846C502.142 272.857 501.537 272.922 500.876 272.992L500.876 272.992H500.876C499.277 273.163 497.353 273.368 496.313 272.943C495.063 272.432 494.052 271.717 494.739 270.201C495.321 268.92 497.434 269.074 498.974 269.186C499.395 269.217 499.773 269.244 500.065 269.238C504.989 269.143 509.902 268.866 514.817 268.565C516.615 268.455 518.412 268.342 520.209 268.229L520.21 268.229L520.21 268.229L520.21 268.229L520.21 268.229C529.567 267.641 538.915 267.053 548.295 266.893C557.959 266.728 567.617 266.396 577.276 266.065ZM638.065 342.668L641.411 342.628C643.139 342.778 643.912 344.592 642.803 345.986C641.953 347.054 638.684 347.102 636.553 347.133C635.962 347.142 635.459 347.15 635.119 347.177C629.556 347.624 624.004 347.825 618.424 347.879C606.674 347.99 594.968 348.494 583.237 349.163C571.229 349.848 559.211 350.105 547.192 350.363H547.191C538.349 350.552 529.506 350.742 520.667 351.101C515.605 351.307 510.542 351.461 505.478 351.594C504.934 351.608 504.21 351.686 503.391 351.774C500.192 352.12 495.544 352.622 494.491 350.081C493.556 347.827 494.855 346.789 496.755 346.317C496.455 344.982 496.511 343.106 496.543 342.031C496.552 341.708 496.56 341.457 496.555 341.315C496.507 339.968 496.473 338.62 496.44 337.272C496.402 335.745 496.365 334.218 496.306 332.691C496.253 331.306 496.203 329.919 496.153 328.531C495.957 323.059 495.761 317.573 495.34 312.123C495.145 309.607 494.837 307.121 494.529 304.639C494.038 300.676 493.547 296.723 493.525 292.678C493.521 291.95 493.484 291.04 493.443 290.013C493.233 284.761 492.901 276.457 496.161 273.928C501.91 270.573 500.774 280.256 500.266 284.577C500.183 285.291 500.116 285.858 500.1 286.197C499.77 293.382 500.218 300.252 500.942 307.392C501.43 312.214 501.145 317.02 500.859 321.834C500.757 323.553 500.655 325.273 500.588 326.996C500.555 327.848 500.526 328.7 500.496 329.551C500.406 332.172 500.315 334.791 500.118 337.409C500.096 337.692 500.089 338.235 500.08 338.929C500.054 340.886 500.013 344.044 499.594 345.961C500.486 345.922 501.352 345.932 502.067 345.94C502.523 345.945 502.917 345.949 503.219 345.94C504.591 345.898 505.964 345.858 507.337 345.818C511.39 345.699 515.444 345.58 519.497 345.428C529.065 345.068 538.636 344.948 548.207 344.828C559.512 344.686 570.816 344.544 582.115 344.007C600.737 343.122 619.423 342.895 638.065 342.668ZM641.519 272.42C641.509 284.729 642.461 296.7 643.573 308.96C644.261 316.543 644.812 324.155 645.251 331.757C645.272 332.109 645.268 332.696 645.265 333.432V333.433C645.242 337.637 645.194 346.695 649.349 344.528C652.486 342.892 651.28 333.405 650.613 328.155L650.613 328.155C650.467 327.004 650.346 326.056 650.303 325.44C650.212 324.127 650.122 322.814 650.032 321.502C649.614 315.408 649.197 309.318 648.647 303.231L648.531 301.947C647.895 294.917 647.259 287.891 647.146 280.827C647.137 280.243 647.193 279.43 647.257 278.51C647.44 275.851 647.685 272.31 646.58 270.898C645.026 268.911 641.522 269.498 641.519 272.42Z" fill="#69A1AC"/>
<path fill-rule="evenodd" clip-rule="evenodd" d="M577.808 302.595C592.674 295.869 607.714 289.065 623.174 284.22C624.291 283.87 624.998 285.022 624.744 285.989C624.482 286.985 622.064 287.835 620.46 288.399C619.98 288.568 619.573 288.711 619.319 288.824C617.16 289.789 614.995 290.741 612.83 291.694C610.613 292.669 608.396 293.645 606.185 294.633C601.587 296.687 596.985 298.733 592.383 300.778C587.454 302.968 582.526 305.158 577.603 307.36C577.416 307.443 577.229 307.527 577.043 307.61C583.737 309.989 590.393 312.474 597.02 315.035C599.285 315.909 601.542 316.803 603.799 317.696C605.076 318.201 606.352 318.706 607.631 319.208C608.047 319.371 608.772 319.593 609.643 319.859C612.481 320.725 616.871 322.066 617.196 323.42C617.724 325.626 611.662 323.492 609.376 322.687C609.072 322.58 608.835 322.497 608.689 322.45C605.314 321.371 601.98 320.17 598.648 318.969L598.187 318.802C595.545 317.851 592.908 316.889 590.271 315.927C585.119 314.049 579.968 312.17 574.788 310.368C574.056 310.113 573.323 309.859 572.59 309.606C564.278 313.34 555.982 317.109 547.714 320.938C543.28 322.992 538.871 325.093 534.473 327.222C533.513 327.687 532.325 328.405 531.033 329.186C527.939 331.056 524.255 333.283 521.721 333.227C520.362 333.197 519.446 332.906 519.304 331.259C519.158 329.559 521.339 328.668 522.907 328.027C523.282 327.873 523.622 327.734 523.887 327.602C528.587 325.251 533.316 322.96 538.059 320.698C547.479 316.205 556.987 311.891 566.529 307.663C566.583 307.639 566.638 307.615 566.693 307.59C561.401 305.8 556.095 304.051 550.777 302.34C550.246 302.169 549.157 301.868 547.726 301.471C540.965 299.599 526.563 295.61 527.204 293.28C527.939 290.615 541.442 295.486 547.419 297.643C548.54 298.047 549.396 298.356 549.854 298.502C557.001 300.779 564.128 303.121 571.218 305.57C573.411 304.585 575.608 303.591 577.808 302.595Z" fill="#89C5CC"/>
<path fill-rule="evenodd" clip-rule="evenodd" d="M514.108 361.133C518.459 361.896 521.529 366.071 521.052 370.442C520.406 376.349 514.519 379.056 509.08 378.286C502.909 377.411 501.611 372.194 504.601 367.176C505.263 366.065 506.024 364.735 507.228 364.15C508.055 363.748 509.109 364.103 509.775 363.779C512.111 362.643 510.706 360.831 514.108 361.133ZM512.126 357.275C506.816 357.953 497.005 364.098 497.501 370.246C497.932 370.959 498.58 371.25 499.445 371.121C499.237 372.453 499.305 373.77 499.649 375.074C500.153 376.766 501.16 378.153 502.508 379.254C505.285 381.524 509.081 382.081 512.539 381.683C518.996 380.941 524.084 376.528 524.447 369.812C524.801 363.257 519.079 356.397 512.126 357.275Z" fill="#89C5CC"/>
<path fill-rule="evenodd" clip-rule="evenodd" d="M537.846 365.275C535.463 366.537 531.694 368.477 530.297 370.875C528.821 373.408 530.349 376.179 533.459 374.981C535.928 374.03 537.498 371.008 540.132 370.039C542.456 369.184 543.392 369.62 545.849 370.471C548.38 371.348 550.592 372.196 553.328 371.98C556.767 371.71 559.745 369.716 563.111 369.263C565.945 368.881 568.282 369.983 570.996 370.422C574.145 370.931 576.204 369.739 579.15 369.118C581.154 368.696 584.686 370.414 586.148 369.771C589.434 368.326 585.957 366.56 584.138 365.976C581.073 364.993 579.187 365.86 576.272 366.676C573.107 367.561 571.74 366.895 568.714 366.082C562.593 364.438 557.864 368.415 552.062 367.692C546.691 367.022 543.476 362.293 537.846 365.275Z" fill="#89C5CC"/>
<path fill-rule="evenodd" clip-rule="evenodd" d="M637.935 362.336C643.827 367.86 637.208 375.719 630.712 371.304C628.426 369.751 628.389 367.255 630.168 365.022C631.796 362.98 635.371 362.184 637.935 362.336ZM635.751 357.872C630.247 358.943 625.055 361.469 624.556 367.822C624.07 374.02 630.428 376.899 635.769 376.493C647.761 375.579 646.894 355.718 635.751 357.872Z" fill="#89C5CC"/>
</g>
<path opacity="0.5" fill-rule="evenodd" clip-rule="evenodd" d="M872.075 111.818C865.245 111.918 848.377 113.783 845.87 119.849C843.966 124.454 849.62 123.443 852.651 121.767C856.751 119.502 860.346 118.145 865.425 117.456C884.776 114.828 903.369 124.252 922.535 125.443C929.794 125.895 938.556 126.189 945.487 124.424C950.423 123.167 951.067 120.426 945.434 120.009C940.648 119.654 935.351 120.772 930.444 120.74C910.139 120.61 892.09 111.532 872.075 111.818" fill="#C1DEE2"/>
<g opacity="0.5">
<path fill-rule="evenodd" clip-rule="evenodd" d="M303.509 399.362C295.085 399.456 286.665 399.767 278.257 400.299C270.262 400.806 261.587 400.421 253.722 401.971C251.488 402.411 248.471 404.446 251.441 406.685C253.528 408.259 261.165 406.449 263.657 406.295C272.836 405.731 282.02 405.055 291.212 404.731C299.914 404.423 308.615 404.315 317.322 404.228C318.651 404.215 320.857 403.789 322.181 404.175C324.083 404.729 323.632 404.88 323.774 407.294C324.032 411.668 323.961 416.058 323.874 420.436C323.79 424.673 323.633 428.909 323.649 433.148C323.659 436.172 322.693 442.181 324.21 444.807C326.394 448.588 328.66 444.482 328.823 441.97C329.136 437.165 328.996 432.302 328.997 427.491C328.998 422.976 329.031 418.46 328.872 413.947C328.756 410.687 329.222 404.996 327.466 402.032C325.677 399.013 321.37 399.664 318.228 399.52C313.326 399.295 308.415 399.311 303.509 399.362Z" fill="#89C5CC"/>
<path fill-rule="evenodd" clip-rule="evenodd" d="M249.91 404.81C249.919 413.294 248.937 421.722 248.662 430.196C248.536 434.093 248.28 438.371 249.266 442.196C250.261 446.058 253.421 446.895 253.785 442.583C254.522 433.853 254.342 424.8 254.915 415.999C255.118 412.892 256.437 407.198 255.206 404.288C254.122 401.725 249.905 401.234 249.91 404.81Z" fill="#89C5CC"/>
<path fill-rule="evenodd" clip-rule="evenodd" d="M328.906 442.207C314.276 444.144 298.982 443.438 284.247 443.743C277.178 443.889 270.111 443.898 263.041 443.972C260.573 443.997 254.307 443.059 252.173 444.446C248.775 446.654 252.461 448.358 254.711 448.407C268.663 448.712 282.771 448.071 296.72 447.613C302.987 447.407 309.275 447.307 315.526 446.774C319.374 446.446 323.579 446.128 327.316 445.094C328.112 444.873 329.846 444.919 330.024 443.833C330.134 443.162 329.935 442.066 328.906 442.207Z" fill="#89C5CC"/>
<path fill-rule="evenodd" clip-rule="evenodd" d="M268.07 454.54C264.004 454.564 251.751 452.675 250.067 456.64C247.822 461.928 256.58 460.694 258.935 460.633C264.285 460.496 269.63 460.481 274.981 460.484C280.231 460.486 285.481 460.452 290.73 460.327C292.251 460.291 295.791 460.922 296.666 459.09C297.331 457.699 296.805 456.601 295.579 455.864C292.628 454.091 284.963 455.119 281.509 454.959C277.036 454.754 272.548 454.54 268.07 454.54Z" fill="#89C5CC"/>
<path fill-rule="evenodd" clip-rule="evenodd" d="M317.537 455.519C315.213 455.657 310.513 454.699 308.431 455.763C306.065 456.972 306.899 458.864 308.941 459.696C310.356 460.272 316.159 459.97 317.537 459.303C318.973 458.607 320.597 455.331 317.537 455.519Z" fill="#89C5CC"/>
<path fill-rule="evenodd" clip-rule="evenodd" d="M343.013 405.643C340.531 406.324 341.284 420.414 341.22 422.647C341.045 428.767 340.357 436.464 342.39 442.358C343.687 446.115 346.178 445.605 345.753 441.65C345.381 438.178 344.741 434.746 344.464 431.252C343.839 423.345 342.987 414.911 343.578 406.997C343.83 407.457 346.184 411.722 346.738 411.403C346.571 411.503 344.023 405.377 343.013 405.643Z" fill="#89C5CC"/>
<path fill-rule="evenodd" clip-rule="evenodd" d="M370.93 400.453C365.907 400.528 360.885 400.617 355.864 400.756C351.871 400.867 345.598 400.211 341.937 401.891C337.577 403.89 339.645 408.345 343.74 408.439C347.363 408.523 351.226 407.706 354.881 407.581C364.754 407.242 374.645 407.171 384.522 407.086C393.456 407.009 402.769 407.962 411.624 406.62C412.937 418.283 409.385 429.995 410.593 441.792C410.78 443.623 410.696 446.21 413.028 446.627C415.971 447.154 416.092 444.239 416.203 442.152C416.522 436.193 416.349 430.229 416.786 424.262C417.19 418.732 417.986 413.081 417.313 407.542C416.486 400.727 413.22 401.273 407.447 400.99C395.254 400.392 383.137 400.274 370.93 400.453Z" fill="#89C5CC"/>
<path fill-rule="evenodd" clip-rule="evenodd" d="M354.098 441.866C351.538 441.931 347.288 441.142 345.648 443.596C343.942 446.15 345.966 448.377 348.447 448.901C351.384 449.521 355.213 448.671 358.261 448.662C361.435 448.652 364.61 448.688 367.784 448.7C381.392 448.753 395.058 448.959 408.657 448.397C410.556 448.318 415.946 448.955 417.26 447.133C418.427 445.518 417.611 444.069 416.074 443.246C413.554 441.895 408.378 442.409 405.575 442.302C402.113 442.17 398.646 442.127 395.183 442.073C381.511 441.862 367.768 441.528 354.098 441.866Z" fill="#89C5CC"/>
<path fill-rule="evenodd" clip-rule="evenodd" d="M365.609 453.67C360.517 453.757 355.083 453.533 350.041 454.306C345.608 454.985 345.062 459.27 349.834 459.772C354.22 460.233 359.537 459.372 363.944 459.089C365.509 458.988 367.329 459.131 368.079 457.4C368.862 455.593 367.365 453.859 365.609 453.67Z" fill="#89C5CC"/>
<path fill-rule="evenodd" clip-rule="evenodd" d="M404.108 454.12C401.39 454.188 393.451 453.019 392.104 456.124C389.863 461.292 400.611 459.329 402.673 459.253C405.272 459.157 415.4 460.675 415.402 456.538C415.404 452.481 406.597 454.059 404.108 454.12Z" fill="#89C5CC"/>
<path fill-rule="evenodd" clip-rule="evenodd" d="M249.47 479.804C249.477 489.206 248.891 498.697 249.749 508.076C250.104 511.955 250.043 519.386 252.29 522.674C253.885 525.008 256.097 524.845 256.968 522.042C257.55 520.168 256.619 516.421 256.515 514.416C256.415 512.493 256.298 510.57 256.209 508.645C255.98 503.688 255.999 498.739 256.067 493.779C256.125 489.524 257.149 483.895 256.184 479.804C255.283 475.991 249.47 475.099 249.47 479.804Z" fill="#69A1AC"/>
<path fill-rule="evenodd" clip-rule="evenodd" d="M343.967 471.532C327.654 471.941 311.304 471.576 295.006 472.383C286.968 472.781 278.961 473.656 270.963 474.527C267.034 474.956 263.107 475.398 259.185 475.881C258.001 476.027 248.166 476.408 251.865 480.148C253.48 481.782 258.62 480.076 260.654 479.835C264.593 479.37 268.539 478.965 272.482 478.548C279.987 477.754 287.5 477.002 295.037 476.585C312.786 475.601 330.609 475.896 348.375 475.241C353.181 475.064 357.973 474.937 362.781 475.126C364.043 475.175 373.321 475.647 369.293 472.22C367.388 470.6 360.207 471.436 357.827 471.387C353.207 471.292 348.585 471.416 343.967 471.532Z" fill="#69A1AC"/>
<path fill-rule="evenodd" clip-rule="evenodd" d="M366.205 487.373C366.125 483.029 366.044 478.685 365.846 474.344C365.638 469.773 371.865 469.081 373.711 472.781C375.041 475.445 374.807 479.977 374.606 483.862C374.526 485.427 374.45 486.888 374.485 488.078C374.564 490.806 374.765 493.628 374.968 496.486C375.48 503.68 376.009 511.111 374.664 517.902C374.01 521.202 371.227 522.936 369.374 521.138C369.371 521.141 369.369 521.145 369.366 521.149C368.669 522.176 366.5 522.174 364.902 522.172C364.462 522.172 364.065 522.171 363.755 522.192C359.378 522.49 355.082 522.992 350.743 523.642C342.099 524.938 333.53 525.734 324.793 525.95C318.864 526.097 312.927 526.146 306.989 526.196C295.617 526.29 284.24 526.384 272.904 527.162C269.082 527.425 265.319 527.875 261.56 528.594C261.24 528.655 260.884 528.734 260.506 528.819C257.711 529.44 253.664 530.34 253.388 526.434C253.059 521.798 263.107 521.19 268.278 520.878C269.068 520.83 269.744 520.789 270.251 520.742C285.952 519.282 301.899 519.508 317.666 519.732C318.43 519.742 319.194 519.753 319.957 519.764C321.187 519.781 322.417 519.801 323.647 519.821C330.398 519.933 337.141 520.044 343.889 519.631C346.96 519.443 350.072 519.346 353.189 519.25C358.162 519.096 363.149 518.941 368.013 518.414C367.279 515.57 367.151 512.214 367.03 509.051C366.983 507.819 366.937 506.617 366.857 505.485C366.43 499.456 366.317 493.415 366.205 487.373Z" fill="#69A1AC"/>
<path fill-rule="evenodd" clip-rule="evenodd" d="M379.408 477.693C377.204 477.992 375.366 479.879 376.35 482.271C377.589 485.283 381.28 484.106 383.718 483.915C391.468 483.308 399.56 484.521 407.217 483.606C409.308 483.356 412.341 482.217 410.464 479.407C409.053 477.296 403.911 477.666 401.725 477.464C394.25 476.772 386.873 476.957 379.408 477.693Z" fill="#C1DEE2"/>
<path fill-rule="evenodd" clip-rule="evenodd" d="M392.488 490.834C389.483 491.036 382.486 490.877 381.219 494.297C378.947 500.432 387.846 498.27 390.556 497.921C393.703 497.516 401.123 498.601 402.799 495.549C405.796 490.091 395.124 490.652 392.488 490.834Z" fill="#C1DEE2"/>
<path fill-rule="evenodd" clip-rule="evenodd" d="M384.759 504.298C383.333 505.724 383.331 508.271 384.759 509.698C386.507 511.445 390.317 511.082 392.614 511.209C395.818 511.388 405.021 513.083 406.612 509.31C408.759 504.219 400.425 504.326 397.684 504.037C394.516 503.704 387.385 501.671 384.759 504.298Z" fill="#C1DEE2"/>
<path fill-rule="evenodd" clip-rule="evenodd" d="M272.437 417.159C272.437 422.632 280.985 422.632 280.985 417.159C280.985 411.715 272.437 411.632 272.437 417.159Z" fill="#89C5CC"/>
<path fill-rule="evenodd" clip-rule="evenodd" d="M288.651 417.221C288.651 423.478 298.388 423.465 298.388 417.221C298.388 410.985 288.651 410.922 288.651 417.221Z" fill="#89C5CC"/>
<path fill-rule="evenodd" clip-rule="evenodd" d="M278.842 425.54C274.11 426.847 278.47 430.858 280.667 431.774C284.16 433.23 288.927 434.304 292.42 432.12C293.81 431.251 294.938 430.097 293.92 428.411C292.834 426.615 291.349 427.414 289.696 427.579C287.603 427.79 285.911 427.757 283.89 427.086C282.381 426.585 280.488 425.087 278.842 425.54Z" fill="#89C5CC"/>
<path fill-rule="evenodd" clip-rule="evenodd" d="M364.69 417.505C364.69 421.207 370.438 421.207 370.438 417.505C370.438 413.803 364.69 413.803 364.69 417.505Z" fill="#89C5CC"/>
<path fill-rule="evenodd" clip-rule="evenodd" d="M377.402 418.062C377.402 422.175 383.788 422.176 383.788 418.062C383.788 413.949 377.402 413.949 377.402 418.062Z" fill="#89C5CC"/>
<path fill-rule="evenodd" clip-rule="evenodd" d="M376.929 426.988C373.575 427.421 363.873 428.404 363.33 432.539C362.493 438.918 373.123 433.755 375.549 433.254C378.64 432.616 381.399 432.783 384.484 432.907C386.178 432.974 388.431 433.249 388.253 430.669C387.962 426.432 379.861 426.612 376.929 426.988Z" fill="#89C5CC"/>
<path fill-rule="evenodd" clip-rule="evenodd" d="M292.592 485.814C290.16 486.463 286.98 490.666 288.653 493.239C291.396 497.458 292.605 490.98 293.753 490.356C295.842 489.222 297.537 493.368 299.72 491.193C303.164 487.761 294.76 485.234 292.592 485.814Z" fill="#69A1AC"/>
<path fill-rule="evenodd" clip-rule="evenodd" d="M320.45 482.696C317.567 482.722 311.48 486.804 311.049 489.818C310.793 491.609 311.98 493.33 313.911 493.354C316.54 493.386 317.375 489.968 319.654 489.253C322.112 488.482 321.747 490.258 323.87 491.178C325.424 491.852 327.367 491.57 327.906 489.66C328.925 486.057 323.413 482.639 320.45 482.696Z" fill="#69A1AC"/>
<path fill-rule="evenodd" clip-rule="evenodd" d="M298.38 499.954C293.768 502.656 301.356 508.449 303.987 509.174C307.958 510.267 315.951 508.226 316.892 503.375C317.267 501.444 316.059 499.695 313.928 500.041C312.174 500.326 311.049 502.527 309.424 503.315C307.23 504.378 305.28 504.306 303.416 502.705C301.898 501.4 301.085 498.376 298.38 499.954Z" fill="#69A1AC"/>
<path fill-rule="evenodd" clip-rule="evenodd" d="M301.722 539.885C297.602 540.764 293.413 540.174 289.273 541.001C285.051 541.843 282.528 543.438 278.606 541.831C278.421 541.753 278.237 541.676 278.053 541.598C275.017 540.29 271.835 539.903 268.658 541.987C266.777 543.22 261.068 547.486 261.756 550.089C263.247 555.732 269.671 546.883 271.309 546.021C274.433 544.376 276.574 546.477 279.79 547.07C283.642 547.78 286.741 545.745 290.37 544.934C294.613 543.986 299.387 543.656 303.705 543.148C305.41 542.948 311.871 544.297 312.454 542.174C313.456 538.528 303.342 539.542 301.722 539.885Z" fill="#C1DEE2"/>
<path fill-rule="evenodd" clip-rule="evenodd" d="M331.449 551.25C331.719 551.454 331.503 551.29 331.449 551.25V551.25ZM342.989 539.665C346.516 539.307 357.802 536.787 360.119 540.432C361.629 542.806 359.233 551.568 356.949 552.702C355.122 553.607 350.869 552.606 348.865 552.535C345.136 552.404 341.4 552.346 337.675 552.113C336.426 552.035 332.407 552.265 331.428 551.159C330.272 549.854 330.323 542.895 330.051 541.169C333.294 542.219 339.598 540.009 342.989 539.665ZM350.521 536.091C346.004 536.287 341.487 536.626 337.003 537.232C334.504 537.57 331.971 538.468 329.663 538.894C328.919 539.031 327.711 538.65 326.799 539.091C324.132 540.379 326.467 549.089 327.11 551.415C328.098 554.99 330.583 555.569 334.066 555.905C338.653 556.35 343.334 556.21 347.936 556.154C352.371 556.099 358.352 557.082 360.841 552.632C362.45 549.754 364.175 543.053 362.8 539.846C360.991 535.626 354.236 535.935 350.521 536.091Z" fill="#C1DEE2"/>
<path fill-rule="evenodd" clip-rule="evenodd" d="M401.111 553.644C400.869 553.954 400.869 553.954 401.111 553.644V553.644ZM402.101 552.45C402.026 552.564 401.679 552.93 402.101 552.45V552.45ZM391.327 552.122C393.319 551.748 395.311 551.377 397.304 551.013C395.417 553.656 393.429 552.564 390.203 552.334C390.578 552.263 390.953 552.193 391.327 552.122ZM381.827 551.187C382.331 551.018 382.836 550.85 383.341 550.681C383.325 551.065 383.408 551.425 383.588 551.76C382.724 551.666 381.861 551.566 380.998 551.46C381.274 551.369 381.551 551.278 381.827 551.187ZM377.424 547.936C377.396 547.243 378.438 547.719 379.036 547.672C377.884 548.686 377.346 548.775 377.424 547.936ZM393.169 540.072C393.321 539.878 393.522 539.888 393.772 540.101C393.499 540.192 392.449 540.638 393.169 540.072ZM403.38 538.871C403.407 538.871 403.974 539.636 403.38 538.871V538.871ZM403.094 538.62C403.242 538.734 403.242 538.734 403.094 538.62V538.62ZM401.819 538.471C403.907 538.824 403.749 541.274 401.819 538.471V538.471ZM377.291 538.304C376.867 538.657 377.012 538.315 377.291 538.304V538.304ZM385.275 533.088C381.731 533.294 375.224 533.087 372.264 534.975C368.401 537.44 370.434 545.926 370.78 549.646C371.29 555.144 373.878 556.71 379.056 557.287C385.236 557.976 391.585 558.104 397.797 557.941C403.391 557.794 406.577 555.87 407.602 549.98C407.916 548.177 408.712 545.389 408.687 543.663C408.67 542.466 408.073 541.92 407.848 540.902C406.563 535.105 404.414 534.417 398.473 534.165C394.1 533.979 389.566 532.863 385.275 533.088Z" fill="#89C5CC"/>
</g>
<g opacity="0.5">
<path fill-rule="evenodd" clip-rule="evenodd" d="M573.032 399.913C582.044 400.105 592.268 405.093 590.843 415.659C589.799 423.399 583.098 429.682 575.336 430.224C566.994 430.806 558.174 424.404 557.041 415.91C555.766 406.357 564.22 399.722 573.032 399.913ZM568.613 395.612C564.959 396.157 561.468 398.076 558.251 399.794C557.023 400.451 550.798 404.452 555.681 405.446C543.916 424.419 571.603 442.043 587.17 429.712C594.161 424.174 597.841 413.675 593.322 405.457C588.649 396.957 577.566 394.267 568.613 395.612Z" fill="#89C5CC"/>
<path fill-rule="evenodd" clip-rule="evenodd" d="M566.459 411.762C566.459 415.306 571.959 415.306 571.959 411.762C571.959 408.218 566.459 408.218 566.459 411.762Z" fill="#89C5CC"/>
<path fill-rule="evenodd" clip-rule="evenodd" d="M576.657 412.329C576.657 416.171 582.621 416.171 582.621 412.329C582.621 408.488 576.657 408.488 576.657 412.329Z" fill="#89C5CC"/>
<path fill-rule="evenodd" clip-rule="evenodd" d="M569.775 419.927C568.972 422.842 578.123 424.337 578.428 420.964C578.573 419.352 570.333 417.894 569.775 419.927Z" fill="#89C5CC"/>
<path fill-rule="evenodd" clip-rule="evenodd" d="M596.599 418.126C607.129 416.862 617.985 417.446 628.565 417.749C631.213 417.826 633.861 417.9 636.509 417.944C638.192 417.972 641.828 418.78 643.298 417.992C649.315 414.765 637.511 413.205 635.84 413.057C625.316 412.191 609.075 411.882 598.52 412.29C595.398 412.412 594.723 418.351 596.599 418.126Z" fill="#89C5CC"/>
<path fill-rule="evenodd" clip-rule="evenodd" d="M643.98 470.469C644.07 459.437 644.466 448.33 645.314 437.33C645.659 432.847 646.074 428.37 646.417 423.886C646.579 421.775 647.329 418.817 646.088 416.964C644.809 415.055 642.003 414.658 640.312 416.35C638.288 418.97 638.876 423.367 638.624 426.537C638.237 431.41 637.77 436.28 637.537 441.164C637.088 450.616 636.983 460.233 637.743 469.673C638.102 474.127 638.879 478.473 639.914 482.817C640.385 484.795 644.132 493.603 643.345 494.818C642.124 496.702 633.099 495.99 631.141 496.042C626.117 496.177 621.092 496.265 616.067 496.361C611.765 496.443 607.463 496.502 603.16 496.54C601.452 496.555 591.414 496.251 593.641 498.784C568.741 500.519 543.366 497.622 518.618 496.629C517.368 496.578 515.323 496.223 513.435 496.121C513.209 495.209 513.023 494.395 512.977 493.828C512.652 489.851 512.567 485.86 512.214 481.884C511.569 474.608 510.318 467.407 509.574 460.144C508.831 452.889 508.906 445.612 508.473 438.339C508.399 437.093 508.224 426.885 505.648 424.404C506.869 424.867 508.839 424.928 509.973 424.836C519.153 424.096 528.266 422.5 537.368 421.131C539.972 420.74 545.881 421.017 548.041 419.716C549.91 418.589 550.65 414.638 547.398 414.958C538.322 415.93 529.296 417.439 520.292 418.924C517.883 419.321 515.481 419.746 513.079 420.18C511.475 420.47 507.241 420.448 505.997 421.415C504.486 422.589 504.326 423.388 504.838 423.919C504.126 423.723 503.273 424.031 502.248 425.056C500.31 427.578 502.132 433.789 502.363 436.746C502.64 440.293 502.777 443.845 502.938 447.399C503.25 454.275 503.97 461.056 505.076 467.85C506.316 475.46 507.371 483.102 508.614 490.71C508.937 492.691 509.359 494.623 509.898 496.537C506.549 498.249 508.826 500.973 511.481 501.456C511.5 501.46 511.52 501.462 511.539 501.466C512.367 503.485 513.525 505.355 514.429 502.65C514.498 502.442 514.531 502.187 514.539 501.9C521.398 502.676 528.938 502.194 535.691 502.47C550.319 503.068 565.037 503.965 579.68 503.51C585.477 503.33 591.291 502.815 597.039 502.042C600.407 501.589 603.788 501.048 607.102 500.297C607.339 500.243 607.7 500.187 608.117 500.118C608.185 500.116 608.254 500.114 608.318 500.114C613.393 500.037 618.463 499.901 623.533 499.69C627.789 499.513 632.064 499.422 636.306 499.021C638.941 498.772 644.51 498.818 646.127 496.168C647.598 493.759 645.139 487.552 644.79 484.846C644.176 480.08 643.941 475.27 643.98 470.469Z" fill="#C1DEE2"/>
<path fill-rule="evenodd" clip-rule="evenodd" d="M592.556 438.614C588.501 438.961 584.752 440.865 580.66 440.889C577.225 440.908 573.844 439.882 570.39 440.034C566.339 440.21 564.11 442.83 560.562 443.707C557.737 444.404 555.957 442.241 553.472 441.285C550.335 440.077 548.017 440.701 545.328 442.528C543.352 443.87 538.744 446.883 538.78 449.599C538.886 457.825 548.483 446.462 550.417 446.324C552.988 446.141 555.86 449.071 558.595 449.238C562.211 449.459 564.529 447.128 567.859 446.279C571.226 445.42 574.866 446.472 578.242 446.799C582.093 447.171 585.464 446.313 589.19 445.394C592.801 444.503 595.878 444.55 599.547 445.298C602.023 445.803 608.192 448.739 609.276 444.964C610.751 439.823 595.39 438.373 592.556 438.614Z" fill="#89C5CC"/>
<path fill-rule="evenodd" clip-rule="evenodd" d="M593.79 454.302C585.482 455.109 577.123 455.816 568.777 456.042C565.162 456.141 551.266 454.591 552.498 459.185C553.555 463.123 572.465 460.643 576.317 460.343C580.569 460.013 584.814 459.551 589.046 459.016C590.545 458.826 594.166 459.022 595.224 457.765C596.233 456.565 595.736 454.108 593.79 454.302Z" fill="#89C5CC"/>
<path fill-rule="evenodd" clip-rule="evenodd" d="M536.475 475.221C536.286 475.301 536.286 475.301 536.475 475.221V475.221ZM538.228 475.197C540.299 475.132 539.855 474.04 541.921 474.609C542.874 474.871 542.972 474.482 543.711 475.393C545.152 477.17 543.795 481.039 542.374 482.471C537.113 487.773 530.799 475.433 538.228 475.197ZM538.228 469.995C523.825 470.479 529.851 492.728 542.387 488.186C547.564 486.311 550.818 477.861 547.773 473.112C546.292 470.802 544.403 470.391 541.921 470.231C541.345 470.194 540.62 471.031 540.261 470.993C539.406 470.903 539.486 469.948 538.228 469.995Z" fill="#89C5CC"/>
<path fill-rule="evenodd" clip-rule="evenodd" d="M572.671 475.983C572.414 475.904 577.218 477.301 576.693 476.754C577.815 477.921 576.306 480.68 575.037 481.161C571.964 482.328 570.24 477.549 572.671 475.983ZM574.803 469.95C570.293 470.589 566.813 472.467 566.196 477.482C565.627 482.111 568.755 486.799 573.688 486.889C584.442 487.086 584.769 468.56 574.803 469.95Z" fill="#89C5CC"/>
<path fill-rule="evenodd" clip-rule="evenodd" d="M623.893 476.186C624.522 484.406 615.999 476.882 623.893 476.186V476.186ZM620.235 467.392C619.489 468.666 620.125 470.018 621.25 470.759C611.196 472.884 613.473 488.013 623.704 485.778C628.907 484.641 629.863 479.17 629.088 474.653C628.719 472.505 623.366 462.038 620.235 467.392Z" fill="#89C5CC"/>
</g>
<path opacity="0.5" fill-rule="evenodd" clip-rule="evenodd" d="M682.627 488.345C677.977 488.966 666.986 492.821 667.082 496.962C667.23 503.425 676.572 496.365 678.65 495.416C689.813 490.315 704.272 496.925 715.895 498.331C721.225 498.975 731.65 500.167 736.357 497.485C744.728 492.717 725.368 493.911 722.903 493.719C709.501 492.68 696.168 486.529 682.627 488.345" fill="#C1DEE2"/>
<g opacity="0.5">
<path fill-rule="evenodd" clip-rule="evenodd" d="M785.586 436.268C785.583 441.946 785.296 447.742 786.343 453.352C786.66 455.051 786.91 458.304 788.701 459.185C790.501 460.07 792.246 459.076 792.693 457.231C793.215 455.085 792.071 451.872 791.955 449.619C791.796 446.54 791.785 443.458 791.784 440.376C791.783 438.15 792.515 434.569 789.887 433.424C787.934 432.572 785.586 434.156 785.586 436.268Z" fill="#C1DEE2"/>
<path fill-rule="evenodd" clip-rule="evenodd" d="M875.353 427.287C856.541 429.176 837.457 429.568 818.576 430.553C809.849 431.008 799.301 430.427 791.079 433.805C789.552 434.433 784.084 437.925 788.523 439.347C789.907 439.79 791.313 438.299 792.449 437.8C794.341 436.969 796.532 436.712 798.55 436.387C815.706 433.632 833.651 434.112 850.984 432.824C855.425 432.494 859.869 432.155 864.301 431.719C867.467 431.407 874.122 429.125 877.044 430.292C882.038 432.287 881.921 445.247 882.019 449.704C882.071 452.009 879.833 460.283 884.281 459.444C887.84 458.773 886.552 450.177 886.274 447.826C885.546 441.662 884.305 426.38 875.353 427.287Z" fill="#C1DEE2"/>
<path fill-rule="evenodd" clip-rule="evenodd" d="M882.291 459.146C865.95 460.621 849.233 459.173 832.824 459.754C824.224 460.058 815.632 460.543 807.03 460.827C803.31 460.95 799.586 460.955 795.864 460.982C794.084 460.994 785.983 462.073 790.994 465.602C793.213 467.165 800.285 465.906 802.831 465.876C806.656 465.831 810.478 465.672 814.3 465.522C823.152 465.176 831.999 464.696 840.856 464.457C849.328 464.227 857.805 464.178 866.277 463.949C870.492 463.834 874.765 463.705 878.943 463.09C879.886 462.951 882.948 462.84 883.603 461.789C884.222 460.795 883.787 459.001 882.291 459.146Z" fill="#89C5CC"/>
<path fill-rule="evenodd" clip-rule="evenodd" d="M801.979 446.877C801.891 447.085 801.891 447.085 801.979 446.877V446.877ZM809.055 444.726C809.313 444.835 809.313 444.835 809.055 444.726V444.726ZM808.724 444.666C812.537 448.553 806.673 453.193 803.101 449.4C799.309 445.373 806.269 444.679 808.724 444.666ZM804.679 438.786C791.544 441.123 796.194 458.629 808.463 456.099C813.849 454.989 816.929 449.563 815.075 444.351C814.351 442.314 812.772 440.079 810.574 439.438C809.478 439.118 808.508 439.621 807.464 439.503C806.468 439.391 805.915 438.563 804.679 438.786Z" fill="#C1DEE2"/>
<path fill-rule="evenodd" clip-rule="evenodd" d="M854.95 443.713C847.03 443.738 839.107 444.074 831.187 444.225C828.758 444.27 822.514 443.183 822.505 447.013C822.494 451.105 829.449 449.594 831.763 449.539C839.619 449.351 847.495 449.007 855.319 448.259C857.296 448.07 864.138 448.396 864.131 445.708C864.123 442.86 856.546 443.713 854.95 443.713Z" fill="#C1DEE2"/>
<path fill-rule="evenodd" clip-rule="evenodd" d="M873.869 470.421C854.279 470.947 834.718 471.13 815.144 472.133C807.822 472.508 800.51 472.787 793.178 472.787C791.766 472.787 788.922 472.24 787.593 473.129C783.986 475.541 788.093 477.612 790.444 477.742C806.525 478.634 822.838 476.413 838.909 475.912C848.318 475.619 857.728 475.532 867.131 475.053C869.696 474.923 872.262 474.771 874.823 474.572C876.296 474.458 880.191 474.771 881.381 473.909C886.579 470.147 875.621 470.374 873.869 470.421Z" fill="#89C5CC"/>
<path fill-rule="evenodd" clip-rule="evenodd" d="M783.986 480C783.802 485.079 783.783 490.07 784.447 495.121C784.708 497.108 784.829 499.364 787.158 499.869C789.274 500.327 790.347 498.727 790.785 496.953C791.855 492.62 790.914 486.384 790.901 481.883C790.896 479.657 790.893 477.166 788.143 476.663C786.045 476.279 784.066 477.795 783.986 480Z" fill="#89C5CC"/>
<path fill-rule="evenodd" clip-rule="evenodd" d="M894.634 492.245C862.922 493.916 831.252 495.375 799.518 496.716C797.043 496.821 777.817 496.611 784.538 503.316C786.614 505.387 791.963 503.984 794.648 503.853C798.682 503.654 802.719 503.503 806.754 503.298C822.75 502.483 838.789 502.264 854.773 501.35C863.57 500.847 872.346 500.06 881.097 499.036C885.259 498.549 890.426 498.599 894.324 496.968C896.33 496.129 898.494 492.04 894.634 492.245Z" fill="#89C5CC"/>
<path fill-rule="evenodd" clip-rule="evenodd" d="M876.4 466.48C873.988 468.882 875.228 473.62 875.41 476.589C875.66 480.674 875.964 484.762 876.474 488.825C876.806 491.464 876.63 495.571 878.038 497.851C879.687 500.521 883.317 500.225 884.808 497.646C886.127 495.365 885.459 490.566 885.425 488.038C885.378 484.542 885.16 481.041 884.953 477.552C884.779 474.637 885.44 469.964 883.836 467.469C882.206 464.933 878.66 464.232 876.4 466.48Z" fill="#89C5CC"/>
<path fill-rule="evenodd" clip-rule="evenodd" d="M803.917 485.119C803.634 485.337 803.634 485.337 803.917 485.119V485.119ZM809.549 484.413C814.805 485.47 806.307 491.606 803.621 487.395C803.202 486.737 802.983 485.928 803.657 485.356C804.271 484.834 804.658 485.758 805.238 485.51C806.238 485.082 808.482 484.373 809.549 484.413ZM808.824 479.375C805.236 479.659 800.303 479.881 798.527 483.478C796.141 488.309 800.221 493.04 804.942 493.775C809.485 494.483 816.267 491.967 816.631 486.669C816.924 482.397 812.861 479.048 808.824 479.375Z" fill="#89C5CC"/>
<path fill-rule="evenodd" clip-rule="evenodd" d="M838.781 481.93C835.067 481.99 827.765 480.892 824.529 482.702C821.327 484.494 822.755 487.684 825.676 488.447C827.607 488.951 830.763 488.138 832.773 488.056C835.418 487.948 838.064 487.925 840.711 487.888C845.161 487.828 849.609 487.879 854.06 487.879C858.605 487.879 863.229 488.003 867.766 487.669C873.508 487.246 873.353 482.947 867.738 482.41C858.2 481.497 848.351 481.78 838.781 481.93Z" fill="#89C5CC"/>
<path fill-rule="evenodd" clip-rule="evenodd" d="M829.293 530.08C829.293 532.122 831.105 530.08 831.092 530.08C831.105 530.08 829.293 528.037 829.293 530.08Z" fill="#89C5CC"/>
<path fill-rule="evenodd" clip-rule="evenodd" d="M788.297 513.637C788.414 519.574 788.491 525.517 788.744 531.45C788.825 533.326 788.287 536.989 790.561 537.945C793.092 539.01 793.879 536.356 794.171 534.558C795.094 528.862 794.189 522.358 794.1 516.594C794.07 514.659 794.489 511.965 792.291 511C790.498 510.212 788.261 511.674 788.297 513.637Z" fill="#89C5CC"/>
<path fill-rule="evenodd" clip-rule="evenodd" d="M885.935 513.73C886.085 514.084 886.085 514.084 885.935 513.73V513.73ZM886.147 513.669C886.269 513.72 886.76 513.927 886.147 513.669V513.669ZM838.183 508.871C829.069 509.014 819.948 509.122 810.839 509.512C806.952 509.679 803.019 509.813 799.145 510.18C796.401 510.439 789.585 510.547 787.805 512.79C784.132 517.418 791.92 516.156 793.598 515.78C796.651 515.096 799.767 514.877 802.886 514.712C809.653 514.355 816.423 514.164 823.199 514.028C841.574 513.658 859.962 513.714 878.34 513.631C880.119 513.624 883.335 512.908 884.978 513.628C886.625 514.349 886.532 516.123 886.703 518.182C886.93 520.922 885.123 526.143 886.5 528.448C888.636 532.023 891.742 528.987 892.217 526.381C892.873 522.78 891.833 518.456 890.815 515.013C889.379 510.157 887.385 509.964 882.688 509.584C877.199 509.141 871.731 508.872 866.224 508.821C856.879 508.735 847.528 508.726 838.183 508.871Z" fill="#89C5CC"/>
<path fill-rule="evenodd" clip-rule="evenodd" d="M874.234 533.414C854.464 535.71 834.132 534.357 814.257 534.438C809.424 534.458 804.587 534.497 799.758 534.731C797.208 534.854 791.163 534.151 789.416 536.119C785.733 540.266 792.367 540.869 794.789 540.698C799.686 540.349 804.594 540.191 809.504 540.153C826.796 540.019 844.187 540.826 861.465 539.973C868.704 539.615 875.781 538.377 882.886 536.993C884.46 536.687 895.235 534.638 889.091 532.183C885.46 530.732 878.048 532.969 874.234 533.414Z" fill="#89C5CC"/>
<path fill-rule="evenodd" clip-rule="evenodd" d="M816.512 525.822C816.375 525.999 816.375 525.999 816.512 525.822V525.822ZM816.38 525.791C816.333 525.918 816.188 526.232 816.38 525.791V525.791ZM815.133 524.183C815.162 524.22 815.279 524.371 815.133 524.183V524.183ZM815.085 524.171C815.561 524.739 815.881 525.373 816.046 526.072C811.95 527.182 810.372 523.868 815.085 524.171ZM814.826 524.016C814.827 524.017 815.403 524.259 814.826 524.016V524.016ZM808.097 519.079C805.446 522.38 803.258 526.227 806.563 529.998C809.518 533.37 815.463 533.805 819.214 531.554C823.077 529.235 822.744 524.352 820.049 521.165C818.313 519.113 816.907 519.17 814.389 518.835C812.675 518.607 809.551 517.274 808.097 519.079Z" fill="#89C5CC"/>
<path fill-rule="evenodd" clip-rule="evenodd" d="M835.5 525.189C835.5 529.585 854.481 527.693 857.858 527.688C860.687 527.684 877.791 529.244 876.563 524.72C875.554 521.003 858.707 522.851 855.119 522.845C852.018 522.841 835.5 520.712 835.5 525.189Z" fill="#89C5CC"/>
</g>
<g opacity="0.5">
<path fill-rule="evenodd" clip-rule="evenodd" d="M587.7 566.376C597.206 567.756 607.094 572.227 607.011 583.292C606.941 592.595 599.139 602.496 589.119 601.94C580.103 601.441 571.612 591.58 570.483 583.13C569.898 578.752 570.993 574.039 573.568 570.437C576.942 565.719 582.296 565.726 587.7 566.376ZM583.21 560.362C576.334 560.399 571.304 562.886 567.049 568.136C565.523 570.018 563.748 572.044 562.586 574.177C561.501 576.169 561.691 581.234 565.415 578.859C564.498 588.665 570.229 598.182 578.467 603.207C587.422 608.669 597.544 607.604 604.997 599.948C611.819 592.94 614.22 581.103 609.229 572.436C604.241 563.774 592.683 560.269 583.21 560.362Z" fill="#89C5CC"/>
<path fill-rule="evenodd" clip-rule="evenodd" d="M603.826 557.734C599.424 560.96 595.405 565.208 592.067 569.517C588.804 573.728 586.647 578.987 582.727 582.66C580.748 580.504 578.429 574.681 574.48 576.991C571.203 578.908 573.313 582.205 574.909 584.369C579.03 589.958 583.606 592.208 588.891 586.685C593.691 581.67 596.417 574.98 600.905 569.677C602.873 567.349 605.915 565.04 607.482 562.47C608.903 560.142 607.146 555.294 603.826 557.734Z" fill="#89C5CC"/>
</g>
<g opacity="0.5">
<path fill-rule="evenodd" clip-rule="evenodd" d="M770.175 207.878C770.182 208.318 770.188 208.731 770.197 209.112C770.403 217.416 770.284 226.146 769.609 234.431C769.376 237.292 767.295 240.917 764.921 236.974C763.877 235.24 764.024 231.68 764.131 229.061C764.16 228.358 764.186 227.724 764.186 227.21C764.184 224.288 764.337 221.336 764.491 218.375C764.792 212.588 765.095 206.77 764.238 201.086C764.221 200.971 764.204 200.861 764.189 200.754C763.816 198.255 763.791 198.082 761.042 198.139C759.896 198.163 758.75 198.194 757.605 198.225C756.478 198.255 755.351 198.286 754.224 198.309C753.104 198.333 751.985 198.354 750.866 198.376C747.356 198.443 743.846 198.511 740.337 198.639C739.752 198.661 738.659 198.798 737.281 198.971C734.524 199.316 730.624 199.806 727.342 199.803C727.343 199.817 727.344 199.831 727.345 199.845C727.347 199.871 727.349 199.896 727.349 199.922C727.386 201.734 726.919 203.756 726.45 205.788C726.058 207.49 725.664 209.199 725.563 210.795C725.322 214.594 725.319 218.433 725.317 222.273C725.313 226.948 725.31 231.623 724.877 236.225C724.856 236.45 724.843 236.687 724.83 236.927C724.829 236.959 724.827 236.991 724.825 237.023C724.974 237 725.118 236.984 725.257 236.975C727.623 236.825 730.008 236.812 732.39 236.798C733.704 236.791 735.016 236.784 736.323 236.753C738.671 236.699 741.048 236.702 743.434 236.704C748.701 236.71 754.015 236.716 759.167 236.109C760.689 235.912 761.221 237.863 760.538 238.875C759.927 239.781 758.244 239.928 757.012 240.035C756.699 240.063 756.415 240.087 756.185 240.121C752.862 240.613 749.495 240.785 746.142 240.934C742.621 241.09 739.096 241.206 735.573 241.304C734.734 241.328 733.615 241.441 732.374 241.566C729.097 241.897 724.972 242.314 722.925 241.388C720.724 240.392 720.776 239.287 721.674 238.431C721.28 237.564 721.218 236.299 721.169 235.309C721.151 234.931 721.134 234.593 721.102 234.333C720.614 230.392 720.319 226.501 720.312 222.526C720.298 214.74 720.314 206.653 722.468 199.116C721.605 198.738 721.085 198.181 721.087 197.379C721.097 193.335 733.682 193.541 739.665 193.639C740.735 193.656 741.593 193.67 742.131 193.656C746.489 193.542 750.848 193.527 755.207 193.551C756.128 193.556 757.153 193.495 758.215 193.433C760.474 193.3 762.901 193.158 764.852 193.611C769.978 194.801 770.101 202.965 770.175 207.878Z" fill="#89C5CC"/>
<path fill-rule="evenodd" clip-rule="evenodd" d="M802.235 194.497C806.994 194.245 811.756 194.188 816.521 194.17C821.566 194.145 826.618 194.235 831.661 194.39L831.778 194.394C834.012 194.461 846.432 194.834 840.726 197.929C840.394 198.11 840.019 198.26 839.61 198.386C839.852 199.819 839.881 201.298 839.842 202.011C839.695 204.714 839.598 207.421 839.501 210.127C839.435 211.961 839.369 213.795 839.287 215.628C839.063 220.692 838.849 225.757 838.675 230.824C838.653 231.446 838.686 232.259 838.723 233.166C838.844 236.163 839.007 240.18 837.379 241.665C835.95 242.968 834.974 242.707 834.316 241.821C830.228 243.009 821.832 242.623 817.611 242.429C816.593 242.382 815.819 242.346 815.405 242.346C814.665 242.347 813.289 242.439 811.553 242.556C804.324 243.041 790.829 243.948 790.802 240.384C790.799 240.041 790.91 239.734 791.12 239.458C790.547 238.874 790.032 238.016 789.701 236.945C788.513 233.101 788.401 228.954 788.313 224.968C788.188 219.34 788.187 213.705 788.186 208.072C788.185 205.178 788.184 202.285 788.167 199.394C787.394 198.356 787.853 197.169 788.817 196.341C790.87 194.579 795.966 194.558 799.652 194.542C800.644 194.538 801.534 194.534 802.235 194.497ZM794.491 237.895C799.078 236.916 806.807 237.231 810.947 237.4C812.032 237.444 812.87 237.478 813.342 237.476C817.571 237.46 821.801 237.519 826.027 237.688C826.465 237.705 827.113 237.689 827.877 237.669C829.412 237.631 831.412 237.58 833.111 237.769C833.088 237.538 833.073 237.328 833.064 237.146C832.873 233.384 833.011 229.59 833.147 225.817V225.817C833.176 225.015 833.205 224.214 833.231 223.415C833.322 220.594 833.442 217.774 833.563 214.955L833.563 214.955L833.563 214.953C833.639 213.178 833.714 211.403 833.783 209.628C833.813 208.849 833.768 207.79 833.718 206.6V206.6C833.616 204.178 833.49 201.208 833.924 198.926C832.359 198.897 830.756 198.786 829.285 198.684C827.869 198.586 826.575 198.497 825.558 198.496C824.268 198.496 822.979 198.492 821.689 198.488H821.689H821.689H821.689C818.115 198.477 814.543 198.466 810.969 198.537C810.631 198.544 810.292 198.55 809.952 198.557L809.952 198.557L809.952 198.557C805.032 198.652 800.07 198.748 795.191 199.396C794.905 199.434 794.562 199.507 794.181 199.596C794.716 201.832 794.454 204.983 794.225 207.742C794.113 209.082 794.009 210.33 794.008 211.336C794.001 217.592 794.166 223.823 794.331 230.048L794.331 230.049L794.331 230.049C794.394 232.404 794.456 234.757 794.509 237.111C794.516 237.392 794.509 237.653 794.491 237.895Z" fill="#89C5CC"/>
<path fill-rule="evenodd" clip-rule="evenodd" d="M742.284 241.123C739.157 242.95 740.843 250.259 741.927 252.786C743.708 256.943 747.322 260.195 751.222 262.352C759.104 266.712 770.466 265.554 776.427 273.114C776.489 273.192 778.549 275.232 779.018 272.59C779.403 270.422 775.557 267.111 774.066 266.025C769.827 262.934 764.391 261.938 759.488 260.394C754.259 258.748 748.521 255.713 746.328 250.322C745.552 248.413 747.032 238.337 742.284 241.123Z" fill="#C1DEE2"/>
<path fill-rule="evenodd" clip-rule="evenodd" d="M813.779 244.637C810.913 245.427 812.809 249.371 812.804 251.345C812.799 253.809 812.011 256.387 810.493 258.353C806.643 263.338 799.104 264.085 793.452 265.515C789.348 266.553 779.529 268.78 779.145 274.331C778.716 280.529 787.384 272.986 788.117 272.677C796.219 269.705 806.701 269.131 812.955 262.589C815.536 259.888 817.062 256.284 817.305 252.564C817.441 250.469 817.465 243.63 813.779 244.637Z" fill="#C1DEE2"/>
<path fill-rule="evenodd" clip-rule="evenodd" d="M754.561 299.616C754.494 288.148 765.469 281.211 775.393 278.601C787.322 275.458 798.434 283.817 799.84 295.84C801.324 308.529 791.76 318.744 779.149 319.304C768.054 319.796 754.632 311.853 754.561 299.616ZM781.207 284.115C781.852 284.992 782.435 286.392 781.135 287.154C779.884 287.883 779.26 287.007 778.631 286.125C778.234 285.568 777.835 285.009 777.276 284.851C775.826 284.443 773.496 285.968 772.288 286.857C771.798 287.218 771.1 287.995 770.284 288.904C767.688 291.795 763.897 296.017 761.802 292.384C753.446 306.813 774.278 317.612 786.124 312.151C799.134 306.154 796.602 284.229 781.207 284.115Z" fill="#89C5CC"/>
<path fill-rule="evenodd" clip-rule="evenodd" d="M770.289 295.777C770.289 298.409 774.446 298.409 774.446 295.777C774.446 293.174 770.289 293.063 770.289 295.777Z" fill="#89C5CC"/>
<path fill-rule="evenodd" clip-rule="evenodd" d="M777.603 295.283C777.603 298.507 782.697 298.507 782.697 295.283C782.697 292.095 777.603 291.959 777.603 295.283Z" fill="#89C5CC"/>
<path fill-rule="evenodd" clip-rule="evenodd" d="M772.369 302.796C768.203 305.247 780.117 310.116 780.587 305.14C780.79 302.993 778.711 303.572 777.325 303.415C775.999 303.263 773.627 302.064 772.369 302.796Z" fill="#89C5CC"/>
<path fill-rule="evenodd" clip-rule="evenodd" d="M770.562 320.181C770.743 326.44 770.656 332.696 771.843 338.867C772.069 340.039 772.225 344.291 773.152 345.162C775.431 347.304 775.468 343.199 775.557 341.625C775.873 335.99 775.281 330.179 775.151 324.532C775.122 323.316 775.444 320.799 774.871 319.622C773.96 317.755 770.473 317.2 770.562 320.181Z" fill="#C1DEE2"/>
<path fill-rule="evenodd" clip-rule="evenodd" d="M766.106 315.106C756.973 325.357 744.396 324.602 731.726 325.5C725.031 325.974 718.262 326.948 712.876 331.278C710.37 333.293 708.21 335.816 706.758 338.691C706.124 339.948 703.114 347.201 707.634 345.481C709.237 344.87 710.815 340.074 711.852 338.655C713.827 335.953 716.354 333.722 719.385 332.272C725.232 329.475 732.214 329.523 738.554 329.168C745.181 328.797 752.294 328.45 758.386 325.568C761.252 324.212 763.94 322.522 766.246 320.343C767.071 319.564 768.838 318.241 768.969 317.05C769.12 315.689 767.812 313.197 766.106 315.106Z" fill="#C1DEE2"/>
<path fill-rule="evenodd" clip-rule="evenodd" d="M720 346.569C711.421 346.856 702.852 347.203 694.285 347.746C692.53 347.857 686.676 347.502 688.167 351.1C689.362 353.983 696.501 352.076 698.862 351.936C707.789 351.406 716.753 351.222 725.662 350.419C727.663 350.239 736.709 350.31 732.973 346.764C731.196 345.076 722.455 346.486 720 346.569Z" fill="#89C5CC"/>
<path fill-rule="evenodd" clip-rule="evenodd" d="M682.719 350.707C680.015 354.259 681.258 362.891 681.462 367.161C681.66 371.298 680.856 378.863 686.257 379.505C684.542 379.28 687.559 379.609 688.05 379.635C689.146 379.694 690.248 379.713 691.346 379.725C693.883 379.753 696.421 379.719 698.957 379.668C704.702 379.554 710.462 379.386 716.2 379.069C718.612 378.935 731.696 379.047 732.214 376.541C732.876 373.339 720.331 375.151 718.085 375.253C712.616 375.504 707.138 375.557 701.664 375.628C698.951 375.664 696.235 375.691 693.522 375.638C692.401 375.616 687.965 376.076 687.284 375.328C686.703 374.692 687.156 368.842 687.144 367.947C687.104 365.03 687.107 362.107 687.211 359.191C687.281 357.228 688.342 353.493 687.477 351.649C686.636 349.856 684.185 349.244 682.719 350.707Z" fill="#89C5CC"/>
<path fill-rule="evenodd" clip-rule="evenodd" d="M726.895 350.873C727.052 357.371 727.1 363.999 728.635 370.354C729.146 372.468 729.861 376.829 731.986 377.924C734.215 379.073 736.141 377.433 736.286 375.223C736.47 372.446 734.982 368.799 734.677 365.949C734.321 362.624 734.114 359.296 733.992 355.954C733.9 353.441 734.664 349.673 732.268 348.053C730.116 346.597 726.825 348.063 726.895 350.873Z" fill="#89C5CC"/>
<path fill-rule="evenodd" clip-rule="evenodd" d="M743.968 349.287C741.3 351.945 742.492 360.36 742.826 363.775C743.07 366.276 745.808 378.581 749.91 372.164C751.725 369.326 749.419 361.821 749.436 358.511C749.446 356.403 750.192 353.738 749.832 351.713C749.356 349.037 746.388 346.87 743.968 349.287Z" fill="#89C5CC"/>
<path fill-rule="evenodd" clip-rule="evenodd" d="M762.443 347.093C770.457 346.266 778.481 345.646 786.539 345.569C786.926 345.566 787.333 345.561 787.756 345.556C793.279 345.486 801.579 345.38 805.296 349.528C807.321 351.787 808.238 355.28 809.038 358.325C809.187 358.892 809.332 359.445 809.479 359.971C809.605 360.42 809.769 360.932 809.946 361.486C810.781 364.1 811.91 367.637 810.765 369.826C810.137 371.027 809.126 372.051 807.591 371.626C807.233 371.526 806.952 371.399 806.731 371.249C807.319 371.885 807.58 372.792 807.198 373.678C806.46 375.392 804.128 375.429 802.291 375.457C801.846 375.464 801.429 375.471 801.072 375.501C794.953 376.011 788.806 376.351 782.665 376.405C779.742 376.43 776.818 376.406 773.894 376.383C770.884 376.358 767.875 376.333 764.865 376.363C762.681 376.384 760.456 376.592 758.231 376.8C755.421 377.062 752.611 377.324 749.878 377.212C747.834 377.128 745.651 376.459 746.169 373.817C746.592 371.66 748.622 371.472 750.441 371.303C750.599 371.289 750.756 371.274 750.91 371.258C756.702 370.669 762.498 370.46 768.32 370.481C780.551 370.523 792.772 370.46 805.003 370.396C805.506 370.438 805.979 370.63 806.369 370.922C805.929 370.388 805.937 369.676 805.946 368.919C805.951 368.576 805.955 368.223 805.918 367.874C805.843 367.171 805.774 366.471 805.706 365.772C805.48 363.463 805.255 361.171 804.815 358.849C804.748 358.498 804.684 358.112 804.617 357.704C804.216 355.293 803.686 352.098 801.769 350.796C799.841 349.487 796.061 349.55 793.115 349.599C792.319 349.612 791.585 349.624 790.964 349.608C783.103 349.405 775.196 349.964 767.371 350.675C766.77 350.73 766.168 350.782 765.565 350.835C762.588 351.094 759.595 351.355 756.661 351.887C756.124 351.985 755.304 352.271 754.363 352.6C751.859 353.473 748.503 354.644 747.362 353.354C743.584 349.081 760.188 347.326 762.443 347.093Z" fill="#89C5CC"/>
<path fill-rule="evenodd" clip-rule="evenodd" d="M847.707 337.363C848.056 337.811 848.056 337.811 847.707 337.363V337.363ZM793.473 310.887C788.605 313.748 797.614 322.143 799.909 323.441C805.073 326.363 812.17 326.804 817.936 327.625C825.234 328.666 833.176 329.049 840.19 331.44C843.178 332.459 845.077 334.049 847.034 336.493C848.025 337.732 850.413 343.069 852.587 341.805C856.964 339.261 845.169 328.583 842.57 327.435C836.662 324.825 829.678 324.094 823.36 323.081C817.486 322.138 811.486 321.437 805.757 319.775C802.607 318.862 800.368 317.388 798.552 314.567C797.42 312.809 796.492 309.121 793.473 310.887Z" fill="#C1DEE2"/>
<path fill-rule="evenodd" clip-rule="evenodd" d="M868.091 343.681C862.479 343.806 856.878 344.238 851.278 344.669C848.136 344.911 844.995 345.153 841.853 345.341C840.87 345.4 839.886 345.453 838.902 345.506L838.902 345.506L838.902 345.506C836.133 345.655 833.361 345.804 830.606 346.083C830.188 346.125 829.703 346.165 829.174 346.208C826.834 346.4 823.644 346.662 821.605 347.516C819.736 346.102 816.851 347.304 816.806 349.824C816.729 354.414 816.771 358.923 817.331 363.485C817.461 364.544 818.13 369.905 819.586 372.696C819.068 375.332 821.315 376.07 823.406 376.272C831.506 377.054 839.999 376.447 848.378 375.849C852.639 375.544 856.871 375.242 861.006 375.125C862.381 375.086 863.774 375.071 865.175 375.055C869.747 375.004 874.407 374.952 878.833 374.087C879.011 374.052 879.202 374.018 879.402 373.982C881.152 373.669 883.565 373.236 883.749 371.31C883.859 370.154 883.207 369.096 882.116 368.947C882.191 367.984 882.07 366.933 881.981 366.161L881.981 366.161C881.96 365.981 881.941 365.816 881.927 365.671C881.661 362.993 880.994 360.332 880.335 357.705L880.335 357.705L880.335 357.705C880.187 357.114 880.04 356.525 879.897 355.939C879.739 355.289 879.593 354.515 879.435 353.682C878.879 350.739 878.179 347.042 876.32 345.325C874.369 343.525 871.194 343.604 868.65 343.668C868.46 343.673 868.273 343.678 868.091 343.681ZM877.966 369.235C877.301 367.493 877.106 365.138 876.921 362.899V362.899C876.805 361.494 876.692 360.134 876.47 359.001C876.302 358.151 876.165 357.255 876.026 356.344L876.026 356.344C875.688 354.131 875.337 351.832 874.506 349.893C873.394 347.296 872.404 347.395 870.062 347.63C869.627 347.674 869.144 347.722 868.606 347.759C866.219 347.921 863.834 348.127 861.45 348.334L861.45 348.334C860.306 348.433 859.162 348.532 858.018 348.626C853.122 349.028 848.223 349.338 843.324 349.647L843.324 349.647C840.462 349.828 837.599 350.008 834.737 350.208C832.491 350.364 830.298 350.791 828.115 351.216C826.386 351.553 824.662 351.889 822.922 352.088C822.897 352.683 822.847 353.28 822.799 353.849C822.734 354.624 822.674 355.346 822.687 355.937C822.744 358.559 822.975 361.164 823.207 363.774C823.243 364.175 823.278 364.576 823.313 364.978C823.355 365.459 823.459 366.077 823.574 366.763C823.751 367.824 823.956 369.046 824.001 370.171C824.213 370.17 824.424 370.171 824.631 370.171C824.899 370.172 825.162 370.173 825.415 370.169C831.583 370.061 837.747 369.874 843.912 369.637C844.699 369.607 845.486 369.576 846.273 369.546C851.773 369.332 857.273 369.117 862.778 369.054C864.965 369.029 867.18 369.098 869.403 369.167C872.262 369.255 875.132 369.344 877.966 369.235Z" fill="#89C5CC"/>
</g>
<path fill-rule="evenodd" clip-rule="evenodd" d="M384.181 444.584C391.455 448.971 398.602 451.091 401.957 450.226C410.37 448.056 411.144 417.257 404.634 405.115C398.125 392.974 364.661 387.681 362.974 411.738C362.388 420.088 365.892 427.539 371.068 433.619L361.787 476.909H388.747L384.181 444.584Z" fill="#B28B67"/>
<path fill-rule="evenodd" clip-rule="evenodd" d="M393.985 391.891C390.301 390.767 384.954 390.386 382.704 390.644C383.984 387.576 384.492 384.157 384.078 380.829C383.675 377.595 382.231 374.841 380.896 371.955C380.28 370.625 379.582 369.303 378.542 368.285C377.482 367.249 376.141 366.565 374.735 366.238C373.295 365.904 371.79 365.932 370.348 366.235C369.711 366.369 369.138 366.661 368.513 366.823C367.873 366.989 367.562 366.588 367.097 366.185C365.977 365.214 364.334 364.734 362.917 364.562C361.327 364.37 359.676 364.61 358.16 365.133C356.684 365.642 355.266 366.469 354.198 367.674C353.723 368.21 353.292 368.821 353.011 369.495C352.896 369.771 352.877 369.935 352.602 370.036C352.347 370.13 352.048 370.133 351.785 370.222C349.24 371.085 347.063 373.053 345.879 375.58C345.187 377.054 344.86 379.649 344.949 382.558C345.039 385.468 347.664 393.058 350.119 395.827C352.311 398.298 355.532 399.929 358.64 400.643C356.577 403.003 355.203 405.952 354.188 408.952C353.085 412.21 352.402 415.595 352.15 419.045C351.91 422.322 351.888 425.788 352.656 428.995C353.374 431.994 354.91 434.455 357.474 436.016C358.649 436.731 359.912 437.268 361.183 437.759C362.436 438.243 363.692 438.713 365.004 438.985C367.488 439.498 370.349 439.41 372.262 437.432C372.951 436.719 373.709 435.823 374.212 434.952C374.393 434.639 374.502 434.434 374.283 434.127C374.019 433.761 373.594 433.48 373.255 433.193C371.327 431.557 370.134 429.373 369.833 426.778C369.527 424.145 370.234 420.747 372.792 419.598C375.95 418.179 379.428 419.807 382.235 421.325C383.427 417.112 385.877 413.319 389.717 411.386C393.965 409.248 398.84 408.998 403.205 407.164C404.343 406.686 405.502 406.143 406.339 405.169C406.689 404.762 407.1 404.234 407.24 403.696C407.423 402.989 406.967 402.396 406.615 401.844C404.749 398.921 397.669 393.015 393.985 391.891Z" fill="#191847"/>
<path fill-rule="evenodd" clip-rule="evenodd" d="M359.54 766.932C407.311 766.932 446.037 729.941 446.037 684.309C446.037 638.678 407.311 601.686 359.54 601.686C311.769 601.686 273.043 638.678 273.043 684.309C273.043 729.941 311.769 766.932 359.54 766.932Z" fill="#C5CFD6"/>
<path fill-rule="evenodd" clip-rule="evenodd" d="M494.015 679.903C498.194 694.548 508.602 722.306 522.995 754.184L536.672 750.191C524.707 676.837 514.749 628.273 509.045 613.492C505.276 603.726 476.764 604.87 480.044 624.52C481.419 632.761 486.862 654.826 494.015 679.903ZM437.8 627.947C415.495 632.571 369.25 648.918 356.045 654.142C347.745 657.425 353.096 668.558 360.176 667.584C361.375 667.419 365.617 666.944 371.946 666.236C392.276 663.96 434.143 659.273 465.896 654.699C482.615 652.291 473.621 620.952 456.261 624.268C450.421 625.384 444.209 626.618 437.8 627.947Z" fill="#B28B67"/>
<path fill-rule="evenodd" clip-rule="evenodd" d="M509.919 605.214C507.639 597.767 403.982 571.335 403.982 571.335H395.487V579.256L466.916 615.644C466.821 616.818 466.879 618.059 467.11 619.368C466.594 646.343 478.131 666.495 489.554 686.447C497.023 699.494 504.444 712.456 508.413 727.185L534.656 723.267C533.891 721.31 532.683 712.489 531.03 700.428C526.862 670.016 519.873 619.007 510.067 605.512C510.032 605.465 509.998 605.418 509.962 605.371C509.95 605.319 509.935 605.266 509.919 605.214Z" fill="#1F28CF"/>
<path fill-rule="evenodd" clip-rule="evenodd" d="M401.421 637.254C394.886 635.945 388.867 634.776 383.717 633.872C350.451 628.034 340.751 610.214 346.486 571.335H407.778C417.79 574.213 469.822 596.049 496.819 607.662C514.687 615.349 509.054 643.059 498.935 650.27C498.881 650.713 498.698 651.013 498.374 651.148C460.011 667.059 427.297 665.872 406.29 665.109C397.491 664.79 390.746 664.545 386.5 665.662L379.847 644.66L401.421 637.254Z" fill="#2B44FF"/>
<path fill-rule="evenodd" clip-rule="evenodd" d="M363.043 652.783C363.004 651.612 362.017 650.678 360.853 650.797C358.471 651.041 354.744 651.543 352.965 652.411C350.234 653.744 345.438 657.212 345.438 657.212C346.983 660.382 373.213 714.198 373.213 714.198C373.213 714.198 381.634 712.837 379.886 707.766C378.139 702.695 377.067 699.299 377.067 699.299L375.953 666.926C375.934 666.363 375.454 665.927 374.892 665.962L369.808 666.282C369.808 666.282 365.583 662.86 364.233 660.09C363.377 658.334 363.118 654.992 363.043 652.783Z" fill="#E4E4E4"/>
<path fill-rule="evenodd" clip-rule="evenodd" d="M519.314 746.909C518.245 746.431 516.971 746.908 516.568 748.008C515.743 750.258 514.56 753.829 514.56 755.81C514.56 758.85 515.572 764.684 515.572 764.684C519.097 764.684 578.93 764.684 578.93 764.684C578.93 764.684 581.4 756.513 576.079 755.862C570.758 755.211 567.239 754.686 567.239 754.686L537.675 741.497C537.16 741.267 536.558 741.508 536.343 742.029L534.402 746.741C534.402 746.741 529.476 749.041 526.396 749.041C524.444 749.041 521.332 747.81 519.314 746.909Z" fill="#E4E4E4"/>
<path fill-rule="evenodd" clip-rule="evenodd" d="M490.61 582.166L454.778 555.835L446.857 575.429L482.34 590.154C492.375 601.95 497.987 606.868 499.175 604.907C500.176 603.253 499.393 601.705 498.672 600.279C498.111 599.169 497.586 598.132 497.972 597.177C498.854 594.997 505.595 595.227 511.982 595.718C518.37 596.21 516.509 593.365 514.968 591.961C508.448 588.055 500.329 584.79 490.61 582.166ZM302.697 628.562C305.989 621.879 317.199 556.744 317.199 556.744L340.674 556.836C340.674 556.836 318.932 627.072 317.199 631.369C314.948 636.952 318.772 645.063 321.365 650.563C321.766 651.414 322.138 652.202 322.453 652.909C318.855 654.52 317.127 652.573 315.305 650.52C313.247 648.201 311.069 645.748 305.943 648.134C303.963 649.056 302.089 650.146 300.258 651.211C293.934 654.89 288.124 658.27 280.22 653.389C278.967 652.616 277.594 649.703 280.912 647.426C289.177 641.755 301.088 631.829 302.697 628.562Z" fill="#B28B67"/>
<path fill-rule="evenodd" clip-rule="evenodd" d="M383.911 458.172L393.624 456.505C429.665 487.66 444.468 547.513 488.644 579.22L478.011 592.409C401.373 582.914 382.378 509.907 383.911 458.172Z" fill="#E87613"/>
<path fill-rule="evenodd" clip-rule="evenodd" d="M341.567 580.328C341.567 580.328 399.989 580.328 427.515 580.328C431.442 580.328 430.702 574.653 430.134 571.789C423.582 538.74 398.004 503.114 398.004 456.068L373.213 452.178C352.707 485.18 345.616 525.813 341.567 580.328Z" fill="#DDE3E9"/>
<path fill-rule="evenodd" clip-rule="evenodd" d="M331.902 603.934C328.04 613.218 324.252 621.319 320.683 627.541H302.25C300.267 563.375 324.543 514.001 344.86 484.23C340.349 483.907 336.277 482.018 333.703 477.371C324.642 461.009 327.914 452.001 337.598 449.04C342.923 447.411 347.931 448.523 353.926 449.853C358.832 450.942 364.398 452.177 371.339 452.178C371.342 452.178 371.344 452.178 371.346 452.178C372.019 452.178 372.631 452.223 373.187 452.309L381.413 452.779C381.413 452.779 414.814 566.058 399.837 603.934H331.902Z" fill="#FF9B21"/>
<path fill-rule="evenodd" clip-rule="evenodd" d="M331.902 603.934C336.971 591.754 342.168 577.536 347.169 562.853C349.031 579.023 352.131 595.263 357.293 603.934H331.902Z" fill="black" fill-opacity="0.1"/>
<path fill-rule="evenodd" clip-rule="evenodd" d="M700.823 373.65C693.538 378.041 686.38 380.162 683.02 379.296C674.594 377.125 673.82 346.302 680.339 334.151C686.858 321.999 720.372 316.703 722.061 340.779C722.647 349.134 719.139 356.592 713.955 362.676L723.25 406H696.25L700.823 373.65Z" fill="#B28B67"/>
<path fill-rule="evenodd" clip-rule="evenodd" d="M686.423 326.138C687.042 325.769 688.335 324.99 688.991 324.708C689.146 324.64 690.232 323.865 690.261 323.875C691.084 324.153 693.465 325.177 693.669 326.062C693.701 326.129 693.732 326.192 693.762 326.247C694.1 326.86 694.409 327.489 694.705 328.125C695.353 329.522 695.912 330.982 696.447 332.43C697.487 335.25 698.391 338.137 699.223 341.03C700.069 343.975 700.787 346.954 701.591 349.911C702.748 354.166 704.229 358.317 705.378 362.57C706.112 365.286 706.52 368.034 706.327 370.829C706.326 370.863 706.324 370.896 706.321 370.93C706.32 370.944 706.319 370.958 706.317 370.972C706.285 371.401 706.238 371.832 706.176 372.264C706.121 372.634 706.066 373.004 706.008 373.375C704.959 371.282 704.157 368.976 703.307 366.787C703.224 366.573 703.144 366.357 703.067 366.14C702.793 365.696 702.513 365.256 702.23 364.817C700.447 362.048 698.658 359.29 696.948 356.471C693.873 351.401 690.827 346.224 687.181 341.569C686.105 340.194 685.003 338.841 683.94 337.455C683.335 336.666 682.746 335.864 682.176 335.048C681.769 334.464 679.997 332.43 680.639 331.208C680.967 330.582 684.819 327.096 686.423 326.138Z" fill="#2C2C2C"/>
<path fill-rule="evenodd" clip-rule="evenodd" d="M688.796 324.81C688.194 325.012 688.487 323.761 689.069 323.32C691.768 321.28 702.086 320.54 711.064 322.403C717.079 323.652 724.075 326.76 728.879 330.755C733.21 334.357 736.188 340.13 737.722 345.709C739.332 351.566 739.575 357.673 738.678 363.679C738.481 364.998 738.058 366.256 737.822 367.547C737.556 369.001 737.42 370.401 736.946 371.816C736.656 372.683 736.163 373.532 735.916 374.403C735.633 375.397 735.806 376.316 736.012 377.328C736.347 378.975 736.764 380.62 737.355 382.194C738.244 384.557 739.322 386.771 739.998 389.223C740.897 392.486 744.659 403.106 741.91 406H689.576C690.894 402.405 694.85 398.175 695.65 394.327C696.122 392.06 696.346 387.11 696.396 386.93C697.575 378.8 699.878 374.918 701.32 373.509C702.762 372.1 704.683 371.667 704.782 370.445C705.191 365.39 703.181 360.547 701.707 355.83C699.951 350.207 698.664 344.446 696.853 338.842C696.051 336.361 691.919 323.761 688.796 324.81Z" fill="#8991DC"/>
<path fill-rule="evenodd" clip-rule="evenodd" d="M709.118 348.785C709.542 340.229 709.118 336.887 707.144 330.625H708.361C710.285 333.11 711.894 340.711 710.086 348.785H709.118ZM732.966 348.382L732.966 348.382C733.178 347.862 733.395 347.33 733.62 346.785L734.394 347.157C731.953 356.084 728.984 362.976 718.789 368.754L717.996 368.199C727.638 361.419 729.705 356.36 732.966 348.382ZM718.51 337.704C718.408 338.478 718.31 339.232 718.215 339.969C716.749 351.279 715.82 358.452 707.65 371.46L708.576 371.743C717.531 359.679 718.951 349.833 719.374 337.773L718.51 337.704ZM727.33 374.365L728.122 375.328C724.154 376.159 721.457 379.077 718.364 382.422C715.092 385.961 711.378 389.979 705.25 392.508L704.112 391.818C710.801 388.341 713.913 384.884 716.63 381.866C719.442 378.742 721.832 376.088 727.33 374.365Z" fill="black" fill-opacity="0.2"/>
<path fill-rule="evenodd" clip-rule="evenodd" d="M741.213 501L698.941 639.467L678.464 757.223H662.408L684.046 501H741.213Z" fill="#997659"/>
<path fill-rule="evenodd" clip-rule="evenodd" d="M756.336 501C753.465 577.026 756.844 616.241 757.486 623.148C758.129 630.055 766.928 674.842 787.76 759.542L770.651 753.655C737.729 675.973 726.51 635.6 722.734 625.399C718.958 615.199 708.929 573.732 692.648 501H756.336Z" fill="#B28B67"/>
<path fill-rule="evenodd" clip-rule="evenodd" d="M784.761 752.204C785.831 751.725 787.106 752.203 787.509 753.303C788.334 755.556 789.517 759.132 789.517 761.115C789.517 764.159 788.504 770 788.504 770C784.979 770 725.146 770 725.146 770C725.146 770 722.677 761.819 727.998 761.167C733.319 760.515 736.838 759.989 736.838 759.989L766.401 746.784C766.916 746.554 767.519 746.795 767.734 747.317L769.675 752.035C769.675 752.035 774.601 754.338 777.681 754.338C779.632 754.338 782.744 753.106 784.761 752.204Z" fill="#E4E4E4"/>
<path fill-rule="evenodd" clip-rule="evenodd" d="M679.168 752.204C680.238 751.725 681.513 752.203 681.916 753.303C682.74 755.556 683.923 759.132 683.923 761.115C683.923 764.159 682.911 770 682.911 770C679.386 770 619.553 770 619.553 770C619.553 770 617.083 761.819 622.404 761.167C627.725 760.515 631.245 759.989 631.245 759.989L660.808 746.784C661.323 746.554 661.926 746.795 662.14 747.317L664.082 752.035C664.082 752.035 669.007 754.338 672.087 754.338C674.039 754.338 677.15 753.106 679.168 752.204Z" fill="#E4E4E4"/>
<path fill-rule="evenodd" clip-rule="evenodd" d="M746.83 501L728.857 571.547H673.959L682.144 501H746.83Z" fill="#69A1AC"/>
<path fill-rule="evenodd" clip-rule="evenodd" d="M756.94 501C765.811 527.642 760.31 571.547 760.31 571.547H704.289L688.884 501H756.94Z" fill="#89C5CC"/>
<path fill-rule="evenodd" clip-rule="evenodd" d="M818.067 536.484C813.873 530.331 785.604 447.535 785.604 447.535L761.222 451.055C761.222 451.055 801.759 537.272 804.075 541.282C807.084 546.491 804.419 555.048 802.612 560.851C802.333 561.748 802.074 562.58 801.86 563.323C805.652 564.415 807.095 562.248 808.616 559.963C810.335 557.383 812.153 554.652 817.569 556.299C819.661 556.935 821.671 557.752 823.635 558.55C830.418 561.308 836.65 563.841 843.81 557.912C844.945 556.972 845.902 553.899 842.295 552.109C833.31 547.651 820.117 539.491 818.067 536.484ZM607.951 532.205L635.19 497.038L648.217 513.669L618.114 537.594C611.704 551.69 607.657 557.96 605.973 556.404C604.553 555.092 604.88 553.39 605.181 551.822C605.416 550.601 605.635 549.46 605 548.65C603.551 546.8 597.124 548.879 591.11 551.113C585.096 553.347 586.104 550.102 587.2 548.329C592.401 542.78 599.318 537.405 607.951 532.205Z" fill="#B28B67"/>
<path fill-rule="evenodd" clip-rule="evenodd" d="M701.56 388.904L691.695 388.608C684.045 444.289 611.204 491.748 609.231 512.438C608.507 520.026 614.321 522.993 611.902 525.613L625.709 533.003C627.482 530.235 632.642 534.117 641.647 529.629C650.653 525.141 710.471 452.309 701.56 388.904Z" fill="#C61E18"/>
<path fill-rule="evenodd" clip-rule="evenodd" d="M717.611 375.212C719.772 374.753 721.896 376.133 722.356 378.294L723.83 385.225C743.917 396.604 794.7 431.904 817.296 507.729C819.67 515.694 818.058 520.366 816.771 524.098C815.89 526.652 815.16 528.766 815.962 531.194L800.209 538.012C799.951 536.172 797.689 535.063 794.77 533.632C790.527 531.551 784.896 528.79 782.019 522.112C779.292 515.782 775.497 507.931 771.06 499.227C772.464 511.383 771.729 522.847 768.012 532.779C758.74 557.557 682.91 542.469 672.058 520.046C666.267 508.08 670.506 496.755 676.113 481.778C683.23 462.765 692.55 437.867 686.356 398.3L683.841 386.475C683.381 384.315 684.76 382.191 686.921 381.732L717.611 375.212Z" fill="#FF4133"/>
</svg>
