<svg width="971" height="612" viewBox="0 0 971 612" fill="none" xmlns="http://www.w3.org/2000/svg">
<rect x="2.5" y="1.5" width="967" height="609" rx="8.5" fill="white" stroke="#C4C4C4" stroke-width="3"/>
<path d="M0 10C0 4.47715 4.47715 0 10 0H960C965.523 0 970 4.47715 970 10V50H0V10Z" fill="#C4C4C4"/>
<circle cx="29" cy="25" r="6" fill="#EEEEEE"/>
<circle cx="52" cy="25" r="6" fill="#EEEEEE"/>
<circle cx="75" cy="25" r="6" fill="#EEEEEE"/>
<rect x="69" y="164" width="242" height="397" rx="10" fill="#E3E3E3"/>
<rect x="340" y="164" width="262" height="189" rx="10" fill="#E3E3E3"/>
<rect x="340" y="372" width="262" height="189" rx="10" fill="#E3E3E3"/>
<rect x="631" y="372" width="262" height="189" rx="10" fill="#E3E3E3"/>
<rect x="631" y="164" width="262" height="189" rx="10" fill="#E3E3E3"/>
<rect x="54" y="106" width="861" height="19" rx="9.5" fill="#EAEAEA"/>
<rect x="52" y="106" width="401" height="19" rx="9.5" fill="#854BB3" fill-opacity="0.6"/>
<g clip-path="url(#clip0)">
<path d="M471.478 258.369L506.509 241.579C499.065 229.816 485.949 222 471 222C458.603 222 447.465 227.373 439.777 235.916L471.478 258.369Z" fill="#AE8BC9"/>
<path d="M434.138 243.859C430.864 249.838 429 256.701 429 264C429 273.931 432.455 283.052 438.217 290.24L463.502 264.658L434.138 243.859Z" fill="#AE8BC9"/>
<path d="M473.869 268.028L445.146 297.087C452.275 302.666 461.246 306.001 471 306.001C494.195 306.001 513 287.196 513 264.001C513 259.224 512.19 254.64 510.723 250.362L473.869 268.028Z" fill="#AE8BC9"/>
</g>
<g clip-path="url(#clip1)">
<path d="M760.478 461.369L795.509 444.579C788.065 432.816 774.949 425 760 425C747.603 425 736.465 430.373 728.777 438.916L760.478 461.369Z" fill="#AE8BC9"/>
<path d="M723.138 446.859C719.864 452.838 718 459.701 718 467C718 476.931 721.455 486.052 727.217 493.24L752.502 467.658L723.138 446.859Z" fill="#AE8BC9"/>
<path d="M762.869 471.028L734.146 500.087C741.275 505.666 750.246 509.001 760 509.001C783.195 509.001 802 490.196 802 467.001C802 462.224 801.19 457.64 799.723 453.362L762.869 471.028Z" fill="#AE8BC9"/>
</g>
<path d="M155.403 349.079C159.491 349.079 162.806 345.765 162.806 341.676C162.806 337.588 159.491 334.273 155.403 334.273C151.314 334.273 148 337.588 148 341.676C148 345.765 151.314 349.079 155.403 349.079Z" fill="#AE8BC9"/>
<path d="M232 335.883H171.492V347.469H232V335.883Z" fill="#AE8BC9"/>
<path d="M155.403 379.688C159.491 379.688 162.806 376.374 162.806 372.285C162.806 368.197 159.491 364.882 155.403 364.882C151.314 364.882 148 368.197 148 372.285C148 376.374 151.314 379.688 155.403 379.688Z" fill="#AE8BC9"/>
<path d="M232 366.492H171.492V378.078H232V366.492Z" fill="#AE8BC9"/>
<path d="M155.403 409.728C159.491 409.728 162.805 406.414 162.805 402.326C162.805 398.238 159.491 394.924 155.403 394.924C151.315 394.924 148.001 398.238 148.001 402.326C148.001 406.414 151.315 409.728 155.403 409.728Z" fill="#AE8BC9"/>
<path d="M232 396.532H171.492V408.119H232V396.532Z" fill="#AE8BC9"/>
<path d="M800.351 302.657V251.621H785.06V302.657H774.521V224.084H759.231V302.657H749.253V251.621H733.963V302.657H725.343V223H718V310H805V302.657H800.351Z" fill="#AE8BC9"/>
<path d="M511.351 505.657V454.621H496.06V505.657H485.521V427.084H470.231V505.657H460.253V454.621H444.963V505.657H436.343V426H429V513H516V505.657H511.351Z" fill="#AE8BC9"/>
<defs>
<clipPath id="clip0">
<rect width="84" height="84" fill="white" transform="translate(429 222)"/>
</clipPath>
<clipPath id="clip1">
<rect width="84" height="84" fill="white" transform="translate(718 425)"/>
</clipPath>
</defs>
</svg>
