<svg width="1280" height="960" viewBox="0 0 1280 960" fill="none" xmlns="http://www.w3.org/2000/svg">
<rect width="1280" height="960" fill="white"/>
<path d="M825.454 638.61H453.546C448.92 638.61 445.171 634.86 445.171 630.235C445.171 625.61 448.92 621.86 453.546 621.86H825.453C830.08 621.86 833.828 625.61 833.828 630.235C833.828 634.86 830.08 638.61 825.454 638.61Z" fill="#456B93"/>
<path d="M825.454 522.877H453.546C448.92 522.877 445.171 519.127 445.171 514.501C445.171 509.876 448.92 506.126 453.546 506.126H825.453C830.08 506.126 833.828 509.876 833.828 514.501C833.828 519.127 830.08 522.877 825.454 522.877Z" fill="#456B93"/>
<path d="M825.454 407.143H453.546C448.92 407.143 445.171 403.393 445.171 398.768C445.171 394.142 448.92 390.392 453.546 390.392H825.453C830.08 390.392 833.828 394.142 833.828 398.768C833.828 403.393 830.08 407.143 825.454 407.143Z" fill="#456B93"/>
<path d="M825.454 291.408H453.546C448.92 291.408 445.171 287.658 445.171 283.033C445.171 278.408 448.92 274.658 453.546 274.658H825.453C830.08 274.658 833.828 278.408 833.828 283.033C833.828 287.658 830.08 291.408 825.454 291.408Z" fill="#456B93"/>
<path d="M453.546 230.921V712.199H397.711V230.921C397.711 215.503 410.211 203.003 425.629 203.003C441.047 203.003 453.546 215.503 453.546 230.921V230.921Z" fill="#E29E7A"/>
<path d="M881.289 230.921V712.199H825.454V230.921C825.454 215.503 837.953 203.003 853.372 203.003C868.79 203.003 881.289 215.503 881.289 230.921V230.921Z" fill="#E29E7A"/>
<path d="M442.38 208.584C435.602 213.676 431.213 221.783 431.213 230.918V701.026H397.712V230.918C397.712 215.507 410.208 203 425.63 203C431.906 203 437.713 205.076 442.38 208.584V208.584Z" fill="#CE8A6B"/>
<path d="M870.121 208.584C863.343 213.676 858.954 221.783 858.954 230.918V701.026H825.453V230.918C825.453 215.507 837.949 203 853.371 203C859.646 203 865.453 205.076 870.121 208.584V208.584Z" fill="#CE8A6B"/>
<path d="M909.183 701.031H369.817C365.5 701.031 362 704.53 362 708.847V749.049C362 753.366 365.5 756.866 369.817 756.866H909.183C913.5 756.866 917 753.366 917 749.049V708.847C917 704.53 913.5 701.031 909.183 701.031Z" fill="#456B93"/>
<path d="M369.817 701.025C365.5 701.025 362 704.525 362 708.842V749.043C362 753.36 365.5 756.86 369.817 756.86H417.835V701.025H369.817Z" fill="#3B4F66"/>
<path d="M589.528 244.507C577.699 244.507 568.108 254.097 568.108 265.926V298.536C568.108 310.365 577.699 319.955 589.528 319.955C601.357 319.955 610.947 310.365 610.947 298.536V265.927C610.947 254.097 601.357 244.507 589.528 244.507V244.507Z" fill="#FFE378"/>
<path d="M600.695 316.813C597.445 318.801 593.615 319.951 589.528 319.951C577.702 319.951 568.109 310.37 568.109 298.533V265.925C568.109 254.099 577.702 244.507 589.528 244.507C593.615 244.507 597.445 245.657 600.695 247.656C594.542 251.419 590.443 258.197 590.443 265.925V298.533C590.443 306.271 594.542 313.05 600.695 316.813V316.813Z" fill="#FFC85E"/>
<path d="M632.366 244.507C620.537 244.507 610.947 254.097 610.947 265.926V298.536C610.947 310.365 620.537 319.955 632.366 319.955C644.195 319.955 653.786 310.365 653.786 298.536V265.927C653.786 254.097 644.195 244.507 632.366 244.507V244.507Z" fill="#FFE177"/>
<path d="M643.542 316.813C640.282 318.801 636.462 319.951 632.364 319.951C620.538 319.951 610.946 310.37 610.946 298.533V265.925C610.946 254.099 620.538 244.507 632.364 244.507C636.462 244.507 640.282 245.657 643.542 247.656C637.389 251.408 633.28 258.186 633.28 265.925V298.533C633.28 306.282 637.389 313.062 643.542 316.813V316.813Z" fill="#FFC85E"/>
<path d="M675.206 244.507C663.376 244.507 653.786 254.097 653.786 265.926V298.536C653.786 310.365 663.376 319.955 675.206 319.955C687.035 319.955 696.625 310.365 696.625 298.536V265.927C696.625 254.097 687.036 244.507 675.206 244.507V244.507Z" fill="#FFE177"/>
<path d="M686.379 316.813C683.129 318.801 679.299 319.951 675.201 319.951C663.375 319.951 653.782 310.37 653.782 298.533V265.925C653.782 254.099 663.375 244.507 675.201 244.507C679.299 244.507 683.129 245.657 686.379 247.656C680.226 251.408 676.116 258.186 676.116 265.925V298.533C676.116 306.282 680.226 313.062 686.379 316.813V316.813Z" fill="#FFC85E"/>
<path d="M718.044 244.507C706.215 244.507 696.625 254.097 696.625 265.926V298.536C696.625 310.365 706.215 319.955 718.044 319.955C729.873 319.955 739.463 310.365 739.463 298.536V265.927C739.463 254.097 729.874 244.507 718.044 244.507V244.507Z" fill="#FFE177"/>
<path d="M729.216 316.813C725.966 318.812 722.147 319.951 718.049 319.951C706.212 319.951 696.63 310.37 696.63 298.533V265.925C696.63 254.099 706.212 244.507 718.049 244.507C722.147 244.507 725.966 245.657 729.216 247.656C723.063 251.408 718.964 258.186 718.964 265.925V298.533C718.964 306.282 723.063 313.062 729.216 316.813V316.813Z" fill="#FFC85E"/>
<path d="M760.883 244.507C749.054 244.507 739.464 254.097 739.464 265.926V298.536C739.464 310.365 749.054 319.955 760.883 319.955C772.713 319.955 782.303 310.365 782.303 298.536V265.927C782.303 254.097 772.714 244.507 760.883 244.507V244.507Z" fill="#FFE177"/>
<path d="M772.052 316.813C768.803 318.812 764.984 319.951 760.885 319.951C749.048 319.951 739.467 310.37 739.467 298.533V265.925C739.467 254.099 749.048 244.507 760.885 244.507C764.984 244.507 768.803 245.657 772.052 247.656C765.899 251.408 761.801 258.186 761.801 265.925V298.533C761.801 306.282 765.899 313.062 772.052 316.813V316.813Z" fill="#FFC85E"/>
<path d="M474.966 362.935C463.137 362.935 453.547 372.525 453.547 384.354V416.963C453.547 428.792 463.137 438.382 474.966 438.382C486.796 438.382 496.386 428.792 496.386 416.963V384.354C496.386 372.525 486.797 362.935 474.966 362.935Z" fill="#FC5A36"/>
<path d="M486.142 435.239C482.882 437.227 479.062 438.377 474.964 438.377C463.138 438.377 453.546 428.796 453.546 416.959V384.351C453.546 372.525 463.138 362.933 474.964 362.933C479.062 362.933 482.882 364.083 486.142 366.082C479.989 369.834 475.88 376.612 475.88 384.351V416.959C475.88 424.709 479.989 431.487 486.142 435.239V435.239Z" fill="#DB3915"/>
<path d="M517.806 362.935C505.976 362.935 496.386 372.525 496.386 384.354V416.963C496.386 428.792 505.976 438.382 517.806 438.382C529.635 438.382 539.225 428.792 539.225 416.963V384.354C539.225 372.525 529.636 362.935 517.806 362.935Z" fill="#FC5A36"/>
<path d="M528.979 435.239C525.73 437.227 521.899 438.377 517.801 438.377C505.975 438.377 496.383 428.796 496.383 416.959V384.351C496.383 372.525 505.975 362.933 517.801 362.933C521.899 362.933 525.73 364.083 528.979 366.082C522.826 369.834 518.717 376.612 518.717 384.351V416.959C518.717 424.709 522.826 431.487 528.979 435.239V435.239Z" fill="#DB3915"/>
<path d="M560.646 362.935C548.816 362.935 539.226 372.525 539.226 384.354V416.963C539.226 428.792 548.816 438.382 560.646 438.382C572.475 438.382 582.065 428.792 582.065 416.963V384.354C582.065 372.525 572.475 362.935 560.646 362.935Z" fill="#FC5A36"/>
<path d="M571.816 435.239C568.566 437.227 564.747 438.377 560.649 438.377C548.812 438.377 539.23 428.796 539.23 416.959V384.351C539.23 372.525 548.812 362.933 560.649 362.933C564.747 362.933 568.566 364.083 571.816 366.082C565.663 369.834 561.564 376.612 561.564 384.351V416.959C561.564 424.709 565.663 431.487 571.816 435.239V435.239Z" fill="#DB3915"/>
<path d="M603.484 362.935C591.655 362.935 582.065 372.525 582.065 384.354V416.963C582.065 428.792 591.655 438.382 603.484 438.382C615.314 438.382 624.904 428.792 624.904 416.963V384.354C624.904 372.525 615.314 362.935 603.484 362.935Z" fill="#FC5A36"/>
<path d="M614.652 435.239C611.403 437.227 607.583 438.377 603.485 438.377C591.648 438.377 582.067 428.796 582.067 416.959V384.351C582.067 372.525 591.648 362.933 603.485 362.933C607.583 362.933 611.403 364.083 614.652 366.082C608.499 369.834 604.401 376.612 604.401 384.351V416.959C604.401 424.709 608.499 431.487 614.652 435.239V435.239Z" fill="#DB3915"/>
<path d="M646.323 362.935C634.494 362.935 624.904 372.525 624.904 384.354V416.963C624.904 428.792 634.494 438.382 646.323 438.382C658.152 438.382 667.743 428.792 667.743 416.963V384.354C667.743 372.525 658.152 362.935 646.323 362.935V362.935Z" fill="#FC5A36"/>
<path d="M657.489 435.228C654.24 437.227 650.42 438.377 646.322 438.377C634.496 438.377 624.904 428.796 624.904 416.959V384.351C624.904 372.525 634.496 362.933 646.322 362.933C650.42 362.933 654.24 364.083 657.489 366.082C651.336 369.834 647.238 376.612 647.238 384.351V416.959C647.238 424.698 651.336 431.476 657.489 435.228V435.228Z" fill="#DB3915"/>
<path d="M632.678 476.778C620.849 476.778 611.259 486.368 611.259 498.197V530.806C611.259 542.635 620.849 552.225 632.678 552.225C644.507 552.225 654.098 542.635 654.098 530.806V498.197C654.098 486.367 644.507 476.778 632.678 476.778V476.778Z" fill="#64B9FC"/>
<path d="M643.854 549.075C640.594 551.074 636.774 552.225 632.676 552.225C620.85 552.225 611.258 542.632 611.258 530.806V498.199C611.258 486.362 620.85 476.78 632.676 476.78C636.774 476.78 640.594 477.93 643.854 479.918C637.701 483.67 633.592 490.449 633.592 498.199V530.806C633.592 538.545 637.701 545.323 643.854 549.075Z" fill="#31A7FB"/>
<path d="M675.517 476.778C663.687 476.778 654.097 486.368 654.097 498.197V530.806C654.097 542.635 663.687 552.225 675.517 552.225C687.346 552.225 696.936 542.635 696.936 530.806V498.197C696.936 486.367 687.346 476.778 675.517 476.778V476.778Z" fill="#64B9FC"/>
<path d="M686.691 549.075C683.441 551.074 679.611 552.225 675.513 552.225C663.687 552.225 654.094 542.632 654.094 530.806V498.199C654.094 486.362 663.687 476.78 675.513 476.78C679.611 476.78 683.441 477.93 686.691 479.918C680.538 483.67 676.428 490.449 676.428 498.199V530.806C676.428 538.545 680.538 545.323 686.691 549.075Z" fill="#31A7FB"/>
<path d="M718.356 476.778C706.527 476.778 696.937 486.368 696.937 498.197V530.806C696.937 542.635 706.527 552.225 718.356 552.225C730.185 552.225 739.775 542.635 739.775 530.806V498.197C739.775 486.367 730.185 476.778 718.356 476.778V476.778Z" fill="#64B9FC"/>
<path d="M729.527 549.075C726.278 551.074 722.459 552.225 718.36 552.225C706.523 552.225 696.942 542.632 696.942 530.806V498.199C696.942 486.362 706.523 476.78 718.36 476.78C722.459 476.78 726.278 477.919 729.527 479.918C723.374 483.67 719.276 490.449 719.276 498.199V530.806C719.276 538.545 723.374 545.323 729.527 549.075Z" fill="#31A7FB"/>
<path d="M761.195 476.778C749.365 476.778 739.775 486.368 739.775 498.197V530.806C739.775 542.635 749.365 552.225 761.195 552.225C773.024 552.225 782.614 542.635 782.614 530.806V498.197C782.614 486.367 773.024 476.778 761.195 476.778V476.778Z" fill="#64B9FC"/>
<path d="M772.364 549.075C769.114 551.074 765.295 552.225 761.197 552.225C749.36 552.225 739.779 542.632 739.779 530.806V498.199C739.779 486.362 749.36 476.78 761.197 476.78C765.295 476.78 769.114 477.919 772.364 479.918C766.211 483.67 762.113 490.449 762.113 498.199V530.806C762.113 538.545 766.211 545.323 772.364 549.075Z" fill="#31A7FB"/>
<path d="M804.033 476.778C792.204 476.778 782.614 486.368 782.614 498.197V530.806C782.614 542.635 792.204 552.225 804.033 552.225C815.863 552.225 825.453 542.635 825.453 530.806V498.197C825.453 486.367 815.863 476.778 804.033 476.778V476.778Z" fill="#64B9FC"/>
<path d="M815.2 549.075C811.951 551.074 808.132 552.225 804.033 552.225C792.207 552.225 782.615 542.632 782.615 530.806V498.199C782.615 486.362 792.207 476.78 804.033 476.78C808.132 476.78 811.951 477.919 815.2 479.918C809.047 483.681 804.949 490.46 804.949 498.199V530.806C804.949 538.545 809.047 545.323 815.2 549.075Z" fill="#31A7FB"/>
<path d="M474.966 592.511C463.137 592.511 453.547 602.102 453.547 613.931V646.54C453.547 658.369 463.137 667.959 474.966 667.959C486.796 667.959 496.386 658.369 496.386 646.54V613.931C496.386 602.102 486.797 592.511 474.966 592.511Z" fill="#76FCA3"/>
<path d="M486.142 664.81C482.882 666.809 479.062 667.959 474.964 667.959C463.138 667.959 453.546 658.367 453.546 646.541V613.933C453.546 602.096 463.138 592.515 474.964 592.515C479.062 592.515 482.882 593.665 486.142 595.653C479.989 599.405 475.88 606.184 475.88 613.933V646.541C475.88 654.281 479.989 661.059 486.142 664.81Z" fill="#5EDE8B"/>
<path d="M517.806 592.511C505.976 592.511 496.386 602.102 496.386 613.931V646.54C496.386 658.369 505.976 667.959 517.806 667.959C529.635 667.959 539.225 658.369 539.225 646.54V613.931C539.225 602.102 529.636 592.511 517.806 592.511Z" fill="#76FCA3"/>
<path d="M528.979 664.81C525.73 666.809 521.899 667.959 517.801 667.959C505.975 667.959 496.383 658.367 496.383 646.541V613.933C496.383 602.096 505.975 592.515 517.801 592.515C521.899 592.515 525.73 593.665 528.979 595.653C522.826 599.405 518.717 606.184 518.717 613.933V646.541C518.717 654.281 522.826 661.059 528.979 664.81Z" fill="#5EDE8B"/>
<path d="M560.646 592.511C548.816 592.511 539.226 602.102 539.226 613.931V646.54C539.226 658.369 548.816 667.959 560.646 667.959C572.475 667.959 582.065 658.369 582.065 646.54V613.931C582.065 602.102 572.475 592.511 560.646 592.511Z" fill="#76FCA3"/>
<path d="M571.816 664.81C568.566 666.809 564.747 667.959 560.649 667.959C548.812 667.959 539.23 658.367 539.23 646.541V613.933C539.23 602.096 548.812 592.515 560.649 592.515C564.747 592.515 568.566 593.654 571.816 595.653C565.663 599.405 561.564 606.184 561.564 613.933V646.541C561.564 654.281 565.663 661.059 571.816 664.81Z" fill="#5EDE8B"/>
<path d="M603.484 592.511C591.655 592.511 582.065 602.102 582.065 613.931V646.54C582.065 658.369 591.655 667.959 603.484 667.959C615.314 667.959 624.904 658.369 624.904 646.54V613.931C624.904 602.102 615.314 592.511 603.484 592.511Z" fill="#76FCA3"/>
<path d="M614.652 664.81C611.403 666.809 607.583 667.959 603.485 667.959C591.648 667.959 582.067 658.367 582.067 646.541V613.933C582.067 602.096 591.648 592.515 603.485 592.515C607.583 592.515 611.403 593.654 614.652 595.653C608.499 599.405 604.401 606.184 604.401 613.933V646.541C604.401 654.281 608.499 661.059 614.652 664.81Z" fill="#5EDE8B"/>
<path d="M646.323 592.511C634.494 592.511 624.904 602.102 624.904 613.931V646.54C624.904 658.369 634.494 667.959 646.323 667.959C658.152 667.959 667.743 658.369 667.743 646.54V613.931C667.743 602.102 658.152 592.511 646.323 592.511V592.511Z" fill="#76FCA3"/>
<path d="M657.489 664.81C654.24 666.809 650.42 667.959 646.322 667.959C634.496 667.959 624.904 658.367 624.904 646.541V613.933C624.904 602.096 634.496 592.515 646.322 592.515C650.42 592.515 654.24 593.654 657.489 595.653C651.336 599.416 647.238 606.195 647.238 613.933V646.541C647.238 654.281 651.336 661.059 657.489 664.81Z" fill="#5EDE8B"/>
</svg>
