<svg id="Layer_1" enable-background="new 0 0 512 512" height="512" viewBox="0 0 512 512" width="512" xmlns="http://www.w3.org/2000/svg"><g><path d="m45.002 93.242h421.996v297.22h-421.996z" fill="#beebfa"/><path d="m256 93.242h210.998v297.22h-210.998z" fill="#78b9eb"/><path d="m481.998 390.462h-30v-282.22h-391.996v282.22h-30v-312.22h451.996z" fill="#07485e"/><path d="m256 78.242v30h195.998v282.22h30v-312.22z" fill="#03232e"/><path d="m166.487 281.958h-16.964c-36.035 0-65.351 29.316-65.351 65.351v43.153h147.667v-43.153c-.001-36.035-29.317-65.351-65.352-65.351z" fill="#e63950"/><path d="m0 375.462h512v88.298h-512z" fill="#e1ebf0"/><path d="m256 375.462h256v88.298h-256z" fill="#b4d2d7"/><g><path d="m241.011 375.462h30v34.078h-30z" fill="#fff5f5"/></g><ellipse cx="157.99" cy="267.049" fill="#ffcebf" rx="44.908" ry="44.909" transform="matrix(.973 -.23 .23 .973 -57.129 43.443)"/><path d="m283.934 48.24v184.506l68.576-32.221h159.49v-152.285z" fill="#78b9eb"/><path d="m283.934 48.24v184.506l68.576-32.221h159.49v-152.285z" fill="#6e76e5"/><g><path d="m99.172 148.898h117.667v30h-117.667z" fill="#09607d"/></g><g><path d="m309.329 305.458h117.667v30h-117.667z" fill="#09607d"/></g><g><path d="m309.329 245.454h117.667v30h-117.667z" fill="#09607d"/></g><g><path d="m309.329 305.458h117.667v30h-117.667z" fill="#07485e"/></g><g><path d="m309.329 245.454h117.667v30h-117.667z" fill="#07485e"/></g><path d="m256 375.462h15.011v34.078h-15.011z" fill="#e1ebf0"/></g></svg>