<svg width="1280" height="960" viewBox="0 0 1280 960" fill="none" xmlns="http://www.w3.org/2000/svg">
<rect width="1280" height="960" fill="white"/>
<path d="M487.052 575.467C482.967 572.293 477.082 573.027 473.908 577.111L461.527 593.031V332.754H442.792V593.029L430.411 577.11C427.234 573.027 421.35 572.293 417.267 575.467C413.183 578.643 412.448 584.528 415.624 588.612L444.77 626.081C444.787 626.103 444.808 626.123 444.826 626.146C445.009 626.378 445.204 626.599 445.409 626.812C445.438 626.842 445.464 626.876 445.494 626.906C445.734 627.15 445.987 627.381 446.253 627.597C446.285 627.622 446.317 627.643 446.348 627.668C446.578 627.85 446.817 628.023 447.064 628.184C447.135 628.23 447.207 628.271 447.28 628.315C447.495 628.446 447.715 628.571 447.941 628.686C448.023 628.727 448.105 628.767 448.189 628.806C448.413 628.911 448.641 629.007 448.875 629.094C448.961 629.127 449.047 629.159 449.133 629.189C449.371 629.27 449.613 629.34 449.858 629.401C449.944 629.424 450.029 629.449 450.116 629.468C450.372 629.525 450.633 629.568 450.897 629.603C450.976 629.614 451.052 629.629 451.13 629.639C451.469 629.676 451.812 629.699 452.161 629.699C452.522 629.697 452.856 629.676 453.189 629.64C453.281 629.63 453.372 629.611 453.465 629.598C453.712 629.564 453.955 629.524 454.197 629.47C454.299 629.448 454.4 629.418 454.501 629.391C454.727 629.333 454.952 629.269 455.171 629.195C455.276 629.159 455.378 629.12 455.482 629.082C455.693 629.002 455.9 628.914 456.105 628.819C456.209 628.771 456.311 628.723 456.413 628.671C456.612 628.57 456.804 628.46 456.994 628.345C457.092 628.286 457.19 628.23 457.286 628.168C457.486 628.036 457.677 627.895 457.866 627.75C457.941 627.693 458.021 627.641 458.094 627.579C458.344 627.374 458.583 627.158 458.81 626.93C458.886 626.852 458.955 626.769 459.03 626.689C459.182 626.524 459.332 626.358 459.472 626.182C459.5 626.147 459.532 626.117 459.559 626.082L488.7 588.614C491.872 584.528 491.136 578.643 487.052 575.467Z" fill="#FF6E1D"/>
<path d="M817.473 201.616V526.66C817.473 531.833 821.666 536.027 826.84 536.027C832.015 536.027 836.207 531.833 836.207 526.66V201.616H817.473Z" fill="#FF6E1D"/>
<path d="M648.867 332.754H630.133V526.66H648.867V332.754Z" fill="#FF6E1D"/>
<path d="M545.829 435.792C602.735 435.792 648.866 389.66 648.866 332.754C648.866 275.848 602.735 229.717 545.829 229.717C488.923 229.717 442.792 275.848 442.792 332.754C442.792 389.66 488.923 435.792 545.829 435.792Z" fill="#C1E8E6"/>
<path d="M555.196 201.616H536.462V289.041H555.196V201.616Z" fill="#FF6E1D"/>
<path d="M733.17 629.698C790.076 629.698 836.207 583.567 836.207 526.661C836.207 469.755 790.076 423.624 733.17 423.624C676.264 423.624 630.133 469.755 630.133 526.661C630.133 583.567 676.264 629.698 733.17 629.698Z" fill="#C1E8E6"/>
<path d="M923.633 209.734H355.367C350.193 209.734 346 205.54 346 200.367C346 195.194 350.193 191 355.367 191H923.633C928.807 191 933 195.194 933 200.367C933 205.54 928.807 209.734 923.633 209.734Z" fill="#F2484B"/>
<path d="M795.617 769.882H670.723L683.213 657.799H783.128L795.617 769.882Z" fill="#FFCC75"/>
<path d="M545.83 388.957C514.84 388.957 489.627 363.744 489.627 332.754C489.627 301.765 514.84 276.552 545.83 276.552C576.819 276.552 602.032 301.765 602.032 332.754C602.032 363.744 576.819 388.957 545.83 388.957Z" fill="#6DA8D6"/>
<path d="M723.803 570.374V670.288C723.803 675.462 727.996 679.655 733.17 679.655C738.345 679.655 742.537 675.462 742.537 670.288V570.374H723.803Z" fill="#FF6E1D"/>
<path d="M733.17 582.863C702.181 582.863 676.968 557.65 676.968 526.661C676.968 495.671 702.181 470.458 733.17 470.458C764.16 470.458 789.373 495.671 789.373 526.661C789.373 557.65 764.16 582.863 733.17 582.863Z" fill="#6DA8D6"/>
</svg>
